<mxfile host="app.diagrams.net" modified="2022-05-28T09:12:32.102Z" agent="5.0 (Macintosh; Intel Mac OS X 10_15_7) AppleWebKit/537.36 (KHTML, like Gecko) Chrome/102.0.5005.61 Safari/537.36" etag="gdua6Msjc_jaYOR29G0i" version="18.1.3" type="github">
  <diagram id="86G1wzCPfcubY0hBgP5h" name="Page-1">
    <mxGraphModel dx="1426" dy="794" grid="1" gridSize="10" guides="1" tooltips="1" connect="1" arrows="1" fold="1" page="1" pageScale="1" pageWidth="850" pageHeight="1100" math="0" shadow="0">
      <root>
        <mxCell id="0" />
        <mxCell id="1" parent="0" />
        <mxCell id="QaYmW2VWhPKLXj62cDTN-1" value="" style="shape=image;verticalLabelPosition=bottom;labelBackgroundColor=default;verticalAlign=top;aspect=fixed;imageAspect=0;image=data:image/png,iVBORw0KGgoAAAANSUhEUgAAAggAAAFZCAYAAAD9xtesAAAAAXNSR0IArs4c6QAAIABJREFUeF7sXQeUFcXSriUsICCIAj5AggEUxIgCkkHBAKioYMCI5CQgICKSgwEEJIN51wAqohIkigoYCL8BJagLqAQVBEWJu/c/X0/qmeme6blh9+4yfc7zsXd6umuqq6urK6ZEIpEIyVqEKJJClEJE6JWCf7CGV8w/2J9GP+FzbnzHm66Zbc/NP/zeEnxANsJuQJcXYY9QCr/SUlIxHyQR3kPY47hXOeL2o/dE4t1OjHK+IN6LFueS7dUQdjHNJB3euVPI72wKYXec2Ny56kfvKZ4Cgv9xEPYIMXDKYiAKsTVpcBXCHr+lCILLIH3jB6F8pCDwBOkbwu6NgWTDpQxaTkDgQRbeEVyKA0vWdGoUbOoGD0x5oYmDwa6eEKsLTDExhN1/c4Z4txNzSDMJoxn79c6hfUxyvIew67riRPJ3t0Laoa5OYprJ+7A7NAjug0MkNkjNCK4NBdNEhFJM24R7NPuMHgeXr8gVws4z+RDvgs3rbdByGc98aTOkd7FcEe5VHS8CRIQ0c+rQDKfKt5nkJSJPUp2rOuwSE4PvDhcucoT8LBrGa9GN73/LEdjP1F6iEHZFREm7Rbem2Y13MZQh7PFRQgcdJSfxrj538tFMCHtQbhUfPnPq4T0lEsnCHZ9S1L9dIhxwMpJTI2V3aXTd1FQW2yaM4QXmI6n/GsIuFD5FaAmKqhDvCheekN5tSAppJqSZkM/kjbPJ30kx0EoH6CxQtckEhQCj2ocI9GKAziHs3jJdAFQKHVukhKDq2xJo1JBm/CT03ELvQok4l9BMCLsfFbqfx4PPhHj3xDvTILDruBTZ3APVBVHtF7PFwU9KC2H3XP2g62QOlsx49/uoEPbgnJh7Q4VPeOkYVd73W8JoP0Bl7hD2aLEb1L6k4CQU+16NmZRykGaSAfaUrEgEMQJCFbXf1cr+Afxfjk/Dn6ZZQF0QlI8vANcTm+6HgWDnUj44oZdNG8IOTOUtvMv3g4De40oz2vi2WQLSewi7/A7kxwuSB+/B91MIu5MPRbNXT128R+mkGItsY7wbyxheQq7fuH7PVcaOZQyV8WV9Ypk3xHsUVxwVydnnxhXiPTfi3X+n+fXwe67CB6Ibw/8tvx5+z0PYRRjwx5pfD7/nKniPTgEkm9kuIASAzzNEmIPRT/byupEHMH0GMjqHsHtrcUK8C/CjaMqOG7377UW/5/weDGF3LSiPPhu9++HV73mId4FLuoWUEO/eB7gq780uPmMTEIJOGvyea81g/ksJI1pv9l/JBg1h95KRQryL8kVnP80gDzWI2MP+wDZVMtJ7CLuK0Uzl/obVRRNTgXOvJhfeQ9jFV9pgZ5OhmFSU3HWOkBM04x/FoELxYZ8QAyEGQgyEGAgxEGIgT2HAQ0AQyYrOO5eXvk1wazVRZ6St0PtIhxE9UNHx5XXYvWgw2fEewq4UMcTtFdld0664dd4vVPaJMUJIM24cq+BPhc+E9B7SO08DiaQZm+5RLTLRh89YYY6m/ky+MXg2YuZM5Lur7Ck5tShJXtLKXV46Hps/PZdTK4RdCeeMNGTVPEO8++BQaVNIxwjxrlcTDfdquFc9svmFZ1Ni+IypQYhPKkplGg4QsuUfLhvCHuLdhQGf/RLSTM7QjLo3cWwMz60b8ecj/ncXVZhU+3mvgW0UvyH9nvt/nA6M70BKhCOFXeRz5julb4cQdhEGbEK1wN/BF60RcpsYJCsruiiaXV0PPWYWji/qr7Nw+yQ6f5GMH8Lucn068NcBGjtmHJX739nUp29fBxnlbry7K3/kHpoJYedJlb//uR2R48lnQryr492ufVZU4Uj4e3bjPYQdLrCia1AwHin0QfAVLCTCuMp7YpOH/iY3gGwsvzn8npuWFIccrPKeP+zaKDkN+8mTJ2nbtm20YMF7NHPmLNq5cyf16duHJoyf4LjA8XhPDtg9ryci5sMJpzmNd7tPgMNHXSK8OqyGQRUhSvdCsRjo70XvSe/sYbLRjOBLQ7wHpqngPDLEuwxn/O8qZ0yy7VXPKAbvD3I/lfaXhDIGQ4ZTKgkKHb9P8i7su3fvoQkTxtOHH35IW7duNT+6T58+NGHCBI6t2/mGJzalTNZ9nAddlZBmPFwQQ7wrZOPkaDDkM+ILgETqTu69GsD8oiACZS+fyTuwBwxzVJGBtD0dSRGUfuZf9xlK/cBSMokpGCAt7Xtuhv3yqy6naudXo7p1r6Ex40bT73t/Zx8m1iAEPOAVlz+A6GG7dOdmvIewR3UKxfZSyGckuRTU2V24Vy2+byIzPJtMshALCErJi0R7O6oTRPWEV6P6Uxz2fw//S6cVPY1SUlKoS5cuNHPmTE1A4DQIARBu7h6BuOfgLepJP6JiSsGBDmH3xFni92pIMznDI/M03mPgA/7hwlEPLrH3xzIe/27O7VVvDYISXGI7pPhVFdFM7+Nn1vLD/SkCuxMN/GcPGjSIxo0bx7r07dOHxusmBhfq2EvZj3cv2G2qBfk9ye60mo00k3Sw++0H9jzIrszGvZpEsOOr0fxyXSqBbHbKHrwrsbxggGcbzSQd7E6APHhkXobdlgdB9KHGb9EiQXah95rLTcMyKKxR8iLsSD7w35EjdOS//+hkZiYVLlSIihQpQvny5WMaggIFCki3O/A++PFBNFYXEAwNQoj3vE0zmu9ydAdc7tqr9q8MYc8uHhniXawBFUoUUrE8+LmaM3iPgwYhsEiqfDmMYeTouaTqpNFyYZXxI0SZkSz6aMkSeuuttygj42c6evQonXlmaapYsSKlphakO9reQQ0bNPQcjdcg2EwMCYY9ztcv8X5UwWPQPonEi/wCHxRKcf8QdjkeE4mbRI4d0kzOrGmIdxPvgjwIYluyd2IZxy5x/clZxQL5CDgUfrZxBTtT6sXsZZWLHXYxj4gN9g8Xfkj33H0PVaxUkV584QUqVqw4rVy5knr06MEWb9bMWdSx08P2u6IDEKmAwG27uMAu2cbKNONAlbY//WkmhF0mKyjSe9zxzinm/fZq0tFMCLues1KwMtxiZgfNsOnUJa+c4zMCmsljsKdEsiLgJnJVtUBdKdv7fktqPffr6X+pUlkH0Sy5AXYkN6pQ/hy2LIsWLaJGjRuZqqr0tDTq2rUrjRkzhnr27ClVYeHB4zAxjNV8EDQNwvgolc8OpY/P8uVWvMsuDrmBZkLYHTTquTP8+YvRw4vPRMA6U8R5T5KdZkLY7TSQXWdTbsO7Q4PgZu3ys0Bw84b107OULf+O9m9lUcG3Y96BfenSpdSiRQvmb7B48WJq1EgTENAOHvyL7m1/LzVo2JAGDBigmVIkeLcJCEaiJJ/kNi7WeQrhXXbIajjJQ/TOPid596od0wICDGGXqY58nE+8eWSId+OmnL1nUzLjXRcQOIT4Hgj6mWRogUCqgqRx5s+6CM6Unuww87/EmiBIYBEh1EvS53eTCYIEFtvPCYedO3q4j5r/7nxqc1sb9vDaZtfS/AXzqVjRYposQEQjho+gkiVKUO9HetsYhRP2QYMH0TibBkFLlCRrwfAuht1rbLb0SYz3EHZHNEvc92riaYYxo4TwmVMQdoFcbPzk5O9Jh/dkgF1nqIHPpiSCPSUrEom4LQwKUoKAm8ZaACeY3CabLffDvm3rVrrk0kvp2LFjDMvVqlVjJoVrr72WTj/9dPr333+pcOHClD9/fvZcholBjz9O48aOZX28TAwh3hVoRnSR5f0k1EQvl0AXQIcWKEhRMJHjJ99oeb2/GDfBaCZYgGVyw27gI2dohhNTPCnOeCi+nYawK1yThCecanxQXsG7fyZFBVqyMKl05ddp3E/F6Tuq/wbJpbBnZmbS44MG0dPPPGN+Y8mSJemKK66gxx57jJo1a8ZCHf0wZHdS7Kv5IPiqZ/1G9Ue7ut1IIirLfg5h90Z+LqV3XcpV5b3yQE7R94c0E9KMF4GFNONJH24NAttQeMeuVxDyHkOV5+ruwakCbFhPVSFLs+qAMg/BfuLECerVqzfNmTObUHzJaPBLeHzQ4zRw4EAqWLCgEwG2dVOJYhBSh1RFqyE9d+I9hN1ca9vWDr5XPXmBSx0ZB7wbAmMc+EwIewD+7of3AIdrXPAuOeilFCzkY7ze38H9AtTykJ9NEnrPpbBbGgRPLMc3r5jCHTRYlzwK++HD/9Ibb7xOc+a8QBvWb6DMrEwTL4OHPEFPPD6YmRpkTahBCIbZKG8fga6y0UEU6xQ5STMh7II1jxUpCmQU6xQhzSggOQFLq4L3WNdW9mWxjpvLYZdEMYilLOtbFbDmixgPSc5DJSSHwXiS+2H/+++/6e9Dh6jCOecw/4Jdu36hN15/nUaNGsX8D9CgPViwYAHdcMMNdtLm8C7WIIR4txDmoBnnhcLUx+QCeg9hl2AgwfQe4j3v4l0qDon5gfLZlGiacal4+QmDwe6ZB8E9lGRwFg8MRyQ91YZN/a/AXG0Is/c34kaFbk4eQycadj80M+2cHicdFPb58+dT3759afv27Xo6ZW22zZs30y1t2tCP27YxjPXu3ZsmTnxOivdBgwbTuHG8k6K83LMTxmhhz814TwbY3cILtzmSnN5D2NmuF4ZpafspOI9U4TMh3pMI7953DsnV14tmODdmxXM1apoRwO7vpBidUil8KwYMvDt/Pt3bvj2tXr2aatWqZRtp0aLFdNttbVjq5bvuvoteT39dOlPUPggxwB6+GmIgxECIgRADeQMDnIDgVMUJ7lNG4IFQRFHUFLBu/soYN3q9xs8DsJsfHKH589+j2267jTp16kSTJk2i1NRCWv6pCNF3m7+j5s2b0549e2jq1KnUrVtXaWKJzp0706xZs9jI3bp0panTp0qV5nLsKuCdg93l3JrsNBPCLudkidyreQzv5uUrbvQu1wvEe6+GsOu4diDWiedTEe82DYK3dsRfANB68P8NJkWpziDS0+Ql2GFiaNOmDaveCL+Dtu3aUYkSJZjWYOrUKTRixEiqWrUqffLJJ1S2bFkbxpE7AX4Ke/ftpZY33UQZGTsYuurWrUuvpaVR2TJlmGMjXwkyxLsowk4VK9HSu0rWEA4GCfMKpk50Hjoh7L4cKtfhnfuiEHaHGJpIes+beI/dxMAToT9P9d2Pfh2CREn6jWUzFyYR7PPf00wMZcueTfv27qPqNapT+fLl6e9Df9PGTRuZ8IAwRwgJTmHppZdeonnz5tGWLVsoIyPDREFqairVrFmTqlSpwt6/6667fNHDdzgV8K6EkJDeldCETiHNCG6mScRnlBfS6JjEsPuC5tshMDZcL0RL776g+XZIHOwuAcG61wig8lDBOG/w9q7WX9r4nLOOx7c5eTG6emWeyyuwHz78H/3xxz4mIBw4cIB++P572rN3H1WqXImqX3ghlSxVigoWKGCTDQxcHT12jE4cP+7iTDzeC6WmUqFChaSYP1XxLswZLinyF9K7nXwSSTM2QVU3kok1hsnHZ0LY5Qw+KM1YDqD+Z1Oy4T23wm4KCObhasO9SHQJJs64pCr9dZuyxxwSbprgAILiDp4VJ/X4iVMBdkX0JyXeQ9i14y276T3Ee4h3I9ZJlUeGNOOgGYlKzAdPgc/VhOA9BtgjiL9xNBUYYxYdRITKfrOJDm41jk+tp/jD7iet8hJPCLuXsisYzYR4Z2r6kN5d1ejlOEk8zRgz+K2LbO1C2KPjkSHeRZw18fQuzqSoXz/5i45tl/Jwuf5tyBvald9rI3HygKIRhSMTPhmEDQbNjTiEXZ7aPsS7gzBDes/de1WUdp3jKElN7yHszpXSNmei+XuIdyW8x+6kKJhG8bSPsZuKDK8+RXxH85s3vrPFd7QQdj8MGM9DvOcMpkK8h3hXxUC4V2PDlE2DYAptMndMXpsu1A3YOgSFTKG/btFxSn/83yHsCngM2iXEu8051qmeStiJlQC8h7ArEH+I95DeFcjEJn3kUprR1WvMi09wrgqiGAJUXVXBoYN5Wn/GKEz4mV9UYPPrE8LuxlDCDkO5KiqRNONHAoGfZyPNBIbN74Wchj0W2gphj36vhnhnuMt2PpML8B5XE4Mf/wmfhxgIMRBiIMRAiIEQA7kDA3YBwSbR+Hhx+H2fcyw9+4Gmn7B5Ffr4adsnMt50CV8h7Bqi8jredZVYED1X0tBMroRd338h7OL95Vk5z4dJeu7V7MR7FFfZEHbX4gbnM8mPd28NAicj2E377g+z/yL/cD+UCOnON9hLsBFVYXfJQcFhFxKGOYzfF8cGuz0GLIRdHr7iJ9Hanac96d1bOrVNJFuRuNMMJxuGsMujp/zwblakVSAXo4s5plGHwS2pCwCK/14NYXfdkKLHO7c8uY5m4gi7r4nB93gTACPbW75jBdiUKl195wthV0Fj4D7xxHvgyWN8IYQ9RgRG+bov3rlxg/SNEpxArwWBJ0jfQEBE2TkIPEH6RglOoNeCwBOkbyAgouwcBJ4gfaMER/qau5qjTfp1gCaAVPvJ2c8mSnvA7PXpnNzmq8bjxxHKe8IrRQi7aGnyKN5lqSVzA72HsItLwCknv4+Sz4R4D/EuPL08eGSuoRlBkiIB7A4Ngnsj8b9kZmbSpo0b6NvN3xNFsnTWqoVH4ARm/5eCZIiGn4Ge74I94HJfsANfS6tsvGP5Jmh9TU8FNpY1foqpU4+wXBoYgP2f3o0915ND6tOa5mq394MFuwlfroFdhOfY8H7i+Ak6efIkw3ZqwVS94qO2rvHFe/xhjxvNOIhE6DHjohE53iueU5EaNmxIqakFBaK0x8Hle23w3qv2pyLJ3i3EI6lqipnm3C10+45pMNNTBPa5b73F9gZf50SjQ/6SYvAzq86tYQrQ+JP2X6M+jc5F9f1mjWP0wihGX+Ndyx/H4HhOnmnNYIyTT59ZCfZIip63yF7tJt6woxJtZmYWG7ZQ4UKUL38+ndtrX5zMsFunFn9W5Tzey5YpS3WvqUuFCxUWX9Rle1X/PSUrEjGPYGsE8VtZmZk0YOAAGj9+gniy8NcQAyEGbBho0qQJLVmymFJTZcWxfE9TczxxT/X3ecBUik0bgrlPTk6lFc+LsKek4JgNW4iB5MXATTfdRGlpaVSyZAnlYAB+r6ZEIlnaHVyBz2RmZdGAAQNowvjx7KZRQK8omLzoCSELgoGsrCyClggNa2vdJoOMEvYFBoBH4FMTEJZQwdRUV00BL0yZ29F2KdR/VdirSmNrlx3b+S8aOuh0pwrsxv4oWLBguFfisO2xZ3j+ky9fKIBFi1ZogsF/ICCkp6VRiZIlhUP57VVfJ0WegWRlagLC+AnjqU6dOrRgwQJii6ibFSKarYE1zcxgFMSKsL81VwINJHaDYb9pKjNDSNFe4xihbkOw+urqXG589jp7hVOH66Cw8c25DU91Y3xNNjLGVoPdmCrvwT5r5kwaNmwYU+/NmDGDWrRowa1REuJdpwHDRYUtufEfbl0184gerqKTWiJpJiuSRUOGDKGZM2aaAkJqwYLuKqWS3R/0QDaHCfRigM7Ktn6le4b4qwOAE2iWBMJuCAgZGRlUpkyZgLzc+mDLQGUMIUeGu69sWi+EakYOi1sHBJ07FILA7jfLy6+8TN27dafU1FRatGgR1a1bV/BKcsJuAZoceO/Ttw/NmjmLCQiaBsEtIKhsOQUNgjUMExCYiWE8XXPNNbRq1Uqx6lRlZn7ppf39BvK7UXHv+w3lvzcDMja/CZMP9okTJzIBsHDhwpSWnk6tW7XyPsJU1s0PDXkQ77gFPfLIIzRlyhRLQEhNVeAhfshKPppR+Ci9S+ywu7Djhy4n9arQq5DixbCbAsKODKpcqbL2pmSOZINduG6qsPud9FHifdasWdS5c2dKLZRKK5avoPr167lLLosyHgbBe4Jgdw8rphkLxf5nU1Dy5mHo3r07TZs2TSIg+I1swW73QfB8L0JZmRFTgwABYeWqVVTIZHz8y46BfOCRPbb/7u5l+8UHdqcdVT528sNuJ8b44Z0XENLT06kVExDii/dEwS6WM3IGdj8BISfo/VTAu5+ZNDjetTdkfIbXIFSuDAFBkfGKJIm480hv2KUHmvQAjR+fke3VWbNm2wSEevXrW2a5gPw9vvTuw0ds654ceLcJCOlpVLKEpUHwO/v45/4mBg7TmVmZNHDAQH8NQlApLeyfFBiwaxDSqHWr1kkBV24Dwk9AyG3fE8IrxoBbQAgxFQsGTA1CaiqtWAENQv1Yhjul34WpZtp0mQZBHTUeqZbdg2RlZdIATkBYuXIlFSqke2dLJDw/2ctLGxXAfOgvvHMTeYaq8v1cfp/eYr5NxuajyIJcLHzWLpGwT5o4iQYM6M9MDKYGIZfAbgZ2JQHeEe3zSO9HaMpUiYlBQmO2tQ3xrt2zndGYieYzAfAuNDF48RnJ3o4bjwwAu98Rocp74wk7ExC68CYGTkDw+7YQ77bTymligJNiNDzSJiD4LTZuRgP1MEfNxLCSCgnCt+RraT0x/6VEiZzaJk4MQrZBTmXYJ018jvoPGMgJCC0tFWuIdyXlKzqJNAhmFENI735GK7+zy3ye03vVEBB2ZOygSpUrKcPNBB9p0JmTR+rJYsz8FN6ci72tvFcDgRwF3oPBPnPWLOoCHwSBBiGAfOD5UYnCuybNihc1HrBjDDTjkLd/pJtmNA3CdE8nRRvAEiCFJgbZBzkFhFWrVrHFjFeLFyLFSPSGMta5Y33fm2lkD+xiHwS11Y32+6N9z4Aq1vcTgXdVE0M8YFdbHXevWOeO9f1o4Y5lveJJM4xZ64f2jh0ZVMlwUvT5sFjxFuv7yYz3WbNmUufOXYQCQixwx4NmYp0/lvejWfNu3bvTdKmTojo0Hj4IbplFMzFoiZJYFMPKlZRqmBhccwq0BZwMagWreOVgEKFGBV0iecv5ntc4pybs3gJCiHdVMe1kZib1sUUxLKaCqYUsdzcpKhNJ717QJzu9JyfsYh8ElX3iFlXcbxmprPQnpwDNGD4IhQql0nIWxSDzQVDh78lJM+7sl0HFF7W92r17j4BRDGICs8IcucNbpshAGsyBeh4ETUDQNQhWZk+FKrxBNpDg5iOrmMaGlY/No9WsesZ3VwJLqZOUMqVV9pIE9ucmTmTra/NB0L8m2WA/cuQIHT58mM4880wtF4dHy27YVTUIKnJ8dsNuhylv03usNGOZGDKoEoti4JW2XK7KCNGx40gjnEmnFTktR3nk0WNH6OTJTCpWrJjnlS4neKTbSVEPczQRmzz8HbwHqaFLlSplapKSaa8G1SDIYDc1CCqpV/lUy6aAUMjbxCAzudqW2vxDQgA+fEoFdm03BGN4pw7sGnbsGoQ0atWytSczy268Z0Ui9M3XX9PyFSvos08/pXPOOYdGjhxJJUuUcCchykGagabNmQfBlknRJpgKCpvlEOyyA1O8V0UehP5bLFE0kxOwiwQEEZ/ZunUrDR02lI78d4Qee+wxSQIgwWWItznHQDPIqLdjxw76eNXHtGLlCmrSuAk93PFhCcqC8ch44t0SEArRihXLTQ1CYJqJ8RNk9H7ixHHatOn/aPmy5bTu83V0ySWX0NChQz3N7DkFu0tAiIJH4rx0mxgk2MHPhoAwwTAxGImSXDdgjxUSji/qr6PWKTx43bY9YHcqF+zDKqoS8iDsfA15m4CQlk6tWnN5EHIQ78ePHadZs2fRyFGj6Pd9+0ye1KxZM3rzzTfprLPOMvQcrJSNtdb6gmUz7HINgkFAIraRe+idpxnjQEwGvNsOK8lejSfslolhB1WuXMlI5upKXd3+7rvp9TfeYOBVrVqVtmzdwhUhEhyxcYR97ty3aOjQYbRlyxZzomHDhtPQoU+6Uw452HA8eaQK3o08CMitg0uAy8SQQ/z9yJGj9Oz4Z2ny85Ppz9//NPHYtm1bevXVVwkmEatcgcol1+rjxZrcBKV+rvImBnuq5WB8JpCTojPM0ZlJMZDgJr2WeN/1/ebwey7TI6i8Z1JGHoXdpUHg8iD44cfveSx4x4GLkNo//viD3njjDVq4cCGh8uC1zZrRG5yAIIPBDza/50FhFwoIBVO5g8M9Y7LALrwR5kl61z4qFrzn050UM3bsoMqV3FEMxthdu3ajGTOmM9ReceUVtP6r9Wq1G6R4V4d93bp19Mnq1TR7zhz66aefGAyjx4ymxwc9Lrv8S3WtKvvEn0fKYZdpEHhAVWAQ9ZG/J3jiwDtMMu9/8AH98/chevHFl+jTTz9l/McSELRQfz/Y/J4H5TPCGfVJ3HkQtGJNQendM1GSczCXk6Ij1bIUARJdfbCFdK6AN7qDPg1hJ5rEpVq2MikmF94//PBDat++PR06dMgUEM486yx5ISSfw02d+agf6jINQkjv4jMpt+5VK4phB1USCAgGA9/1yy6aOmUq/fvvvwRhoUaN6gJ7gsDUJDl0PPElofeevXrSlOensHmfeeYZevTRR30ONHV6dyerkF/yvGBH7QCWByHVbmIQUU1O0cwLc+ZQz5496ejRo3YBIQf4jBfeezhSLfN5EFz49IA9WCZFvdyzy8TgnJHVxXErlQQZKaVSrPom8BSEuYcq8ptVzEkr8CN53Weo3Ao7EiX1dyZKUj9BJQsRX7x/vPpjateuHf3+++/kNDEkC979NQiC88GrGKsiCuUE67FHwr2qKFy6cShOlKS4WNmM9yeffJL566BBU9i7d28BUeQs7O5aDEEyKWYP7PPmzaOHHnqIOUi3bdeWXn0FJgaulLsiGIneq7JMikF5pFhAkNz4WRSDrViTMw9CVNhRPeEVlDgSxymlGZIAdiU4g8vTqsPaUi2npVNr5oOAlkjcBBv744/lAoL4O4ONr4orL7zEL4oh+2EP9v1evfM+7NGlWk4kXuR7lRcQJk+ezG7BwVtiYTfDHGU+CMEBltzwoh/IJiCYPggQENTdEaOfXf1N72JNznHksHtrEBz0wJd7tqo5ag4aTtIRk5LK1VvvI+gaiDyVOmudQtjQHHg+AAAgAElEQVS1ENGJLNWyEeaYRq1atTZLwionn0ow3sUCwpnSqm/YCtkNu1NAWLxkCVfUzMmzxPSOX3MCdgs6x0IKN0n2w+5mbaL1zR7Y1QWEINwwMbDbBITnJ1PPHj0V5X47PMZfSl8UkGYgILBMimY1xyAaBP+LUzxgnzfvbUuDoAsIRi4gZT6jdM7HhvfuPZzVHDUfBOdh58dnbHkQRIvOIzWSlaUnSvIp98zzQLFpTXgnddFTJMJUOX/++Qdt2LCRvtv8LQ0bOpz++ecf+vrrr2nJkiX066+/Urly5eiOtm2p5sUXU4ECBczZjfGOHD1KP27fTosWL6bvN39Hv/66mypWPIeuvvpquqZuXarheI/J4ZEIm+e3336jVR9/TNc3b8HSqe77fR/9sutX+uLLz+nAgb9YqEuD+vWZJz0YBuyMP//8MwuD2bVjF513/rl01VVX0/nnn8/yC4gY8PHjJ+jXX39hoUibNm6iAwf/Yt7Ol192GVWtVpUKF+LfU6IumXnKE+/ucs9aqmWDqg4ePEjz579Hhw4ddOH44ho16NrrrmO/Z2Zl0UdLltDWbdvMtyGAdOvSzVTHwYb3/febWd337du3065dv1CVKpXpqquvpoYNGlL16tVdjlxYz9USDQLeh9PsyZMnddgidM45Falp0yZUoEBBRicQLo4dOwr7F/ssbOwmjRtThQoVXN9z4sQJ2rFzJyGN7ldffclsjljDyy+/nC644ALHWnKrGiHyDXM0IfRLnSoXXf32ajTMSimsN4TdFDidAoJMNka8PBxsN27YwJzd5syZY+MD8JLfv38//fDDFlr44QfUs3dvKl++HGVk7KCFCz+kzd9tZnkLWrZqRY0aNaLCwuR0ETpx4iTt2rWTPvpoKaNZ/F2jRg1q2LAhvfvuuzRhwgQ27/PPP089evRg/3by919+0fnQpk30559/UpUqVeiyyy6jCy+sRkWLIneC9sbhw//S2rVrGJ80qBg+m/jznAoVqELFc2jdurXad7IuKVSwQEFq2LCBjUdzHcidSdHKg4Ah/vzjD3p73tt07PhxxNSxbaz9h6jWlVdQgwYN2b+xV8FXdu3apfMfDcbu3btRQTgLE7EcBj//nEEfvP8+/bB1C2X8/DPjA3Vq16a619SjSy+9RHiW8BqEdm3b0SuvvkyFChWmP/74nd5//wPbulYofw41btKY8Zk/fv+d8cTjJ8CfcGPXsNbi+uupQvnyLqZ+/PhxytiRQT//9DN9+eWX7J2qVauxM6HKuecyPw1R9m1jXDUNgkxk4tY0oq2wuDko3p1JcRWT9qJush2l57N/9tln6av162nj+g0MWWDQy1cspyefGELz3n6bkCzHaOXLlafX0tKoSZPGPM3RX3/9RWPHjmXhKCVLlqRbbrmZypQpS2vXrqX58+fT//73P5r43ES6/Y7bzbG2btlCHy5aSGvXrKXPP/+cdu/eTcuXL6eMjAyaMXMGbVi/weybP39+url1a0Ie8YMHD9FTT40jSJn8IXrGGWfQ6NGjqWvXrkJCgHPglKlT6djRY1SiZAnCJsW3lS5dmu64oy098cRgBmfcmgTv7kyKhoCgzQwm9tLLL9G0qdMYLtDw/bfccit1696VmjZpyphBZiSLFi9cSIMeH0zfffctlS1blu65524aO3YcixlGpsEnhwyh2bNn02lFi9Kdd7ZjCUc2f/sdvf7mG1Tuf+XoqaeforZ3tGXj801mYoBwBSb42muv0f/93/+xV+CjMHfuXDY2nr/zzju0atXHjOmiIckSnDFbtGhhoxkIQqilPnXqVDp69BiVLVuaduzYydbk9NNPp4c6PER9+/RleRhETWpi8KD3mNc2kWMDuESOn8ixEwi7M8zRuYbgG8uWLqXP1qxhTP6HH34gCJ4Gy4UwC5pdvHgxbdiwgYUi4jmidHDBmD59Ou3/c785LPjX+PHj2Q3W2XB5mzR5Mk2aNIkdjLfeeitVqlSRfvzxJ1qzdg0VK1qMdu7cyV4DXXfr1o2tqS4rEy4pL7/8EhMiDhzYT6VKnUV79uymv//+m4oXL05t2rShESNGUMWKFdkYu3fvofETxtMbr7/B+hntiiuvpOHDhtHVta+mfn360dvvvM0ObAjVN9xwA40ZM4aKFi0qJHe/KIY9e/bQ7Fmzafac2UzgR8OF8N5776OOHTtQ3brXsN8w3/sL3qf+AwfQrp07qcI559D9991HTyJnQcGCDMfgdcAVhI372t9LZc8uy/D/1ltvUcGCBenpp56i+x94wO5fQEQyEwN8ol5++WVa8P4Cdm6gNWjQgPEc8PE9e/fQ6+mv02effcbWGwIKGv59/fXX2/ABYXL8hAn00osvsksS+Bf4Lb7rrDPPYo6cffr0YfxL2CJE3Xt0o2nT/Gox+HMdQR4EmTdthCJZEZsGwSrWxO1wgc7CZuFQKlaj3eD79dUIDAcmGg6L/5UvT4f//pvuvPNOOuvMM+n111+nnzMyGCIbNWpMy5cvMw+VrEgWTXzuORo48DF248OGu+uuOyl//gLspt+oQSPasGkDnXXWmbT7t92mdNm3b18mGUJDYDQc8jggoEW44/Y72K33gw8+oP/++4/y5ctPjz8+iMECIsYGrlC+Ar3z7tu0XhcmihQpQt98+w2df975JrcFDO3vvZcWLVzI6qAPeWIIFShYgBFDowYN6fB//7IsgS1aNKcFC95nhKs1geQXJd553ixNtcx1gpC4du06dqji23Gzwca47bbbXNQ24bkJbA179epFTz/9tLnZnn76GRo8+HF224egBg1Lgfz56eChg9Sx48P09tvv0LnnnssEOGhoeHUILyBce20zeuMNKw8CaOa99+ZTmzYaLE2bNqV5EBD0jRSJZNHOnbuoVcuW9N3mzXTmmaXo9fR0at7C2qCACcwT34RoCQiXEGqgFbrvvvvo+++/Z/SFPrDlimwwJzNP0iOP9KGpU+TVHMVnomMRbZ0Eb0ijgwQOwubqxL5XA8HOOqtLAN6W3OSC3VmLwQk7LjjLli+jDV9uoP1/WQc9+CgasitOmfI8vfZaGtOIGg2CAHhDy5Yt2e0dNAx6RTvttNPou+++Yzd7ixcQjR49hjkh4uD54MMPqWmTJpSaWpAJuKDT4cOHE26laMjR34W7rBw9dowe7dePaTZuvPFGdnhCKNi9+ze68fqbaNevuxh/hZYQIZpMpZ5CdPLkCfrkk0+ZIG60Dg89RLNmz2Z8a/78d6n9Pe2pbLly7MKAPW3xMJ6PaW8bUQwoAIiLoCjVMoRvHLrYi/hW8OUPPvyA6l0DbYPVwAuGwjFz1Ch66qmnqF+/fpQ/n3bZeG/Be+z8wPsQSh588EEmaBz+5x/q8PDD7FJRqWJFdgm96qqrbN4FUh8EnTTnvzufHnjwASZYAX7AWqZMGY1rRyLsonLXXXfRF198wX5zCgi4nHTs2JHxPiRbGzhwIIMN2qeHOnRgwh/+fmLwE/TksCeR9UUnA/u5zWsQ0tPTqESJkjx27IZX23Fi36spEaSn89BH8t1dmRRRrImL7/ZjA9Zzv57Wt6xcuYKaNbvW/AELNmXKFKaKBt9Zumwp3X777cwcgM0DtRgOYzRIXHe2u5NJdcWKFWcScpvbbjM/FwfyqNGjWF+Ez910003mPNAGNG7cyNy42LQQHPo92o+lS8VB0n/AACaAGA2wQYqHmgobCjfuJs2a0Ldff8u6QGLFYYmvh8T/0ksvMWeh2rVrM0KCpGi0r75az9Rx+AZI3Lhtg6gNpsTf6PywqYp3lWJNGOvfw4cZESNJERoIefz4Z5mgZGz7kydO0B133MFihhcsWED16tdneD9x8gRVrFCR9u7by/p+++23dPHFF7N/I+Pb8BHDacTwEWwNZ86cyQQojTy1r/ASENBrzWef0XXNmzNhDgICNrshaWOEvw4cYHAhr0KpUpqACQHMaB988CFzzrz55pvZmkAYMPCH733ggQdM6X/1J59QwwYNuI2n/dPtg7BYWPXU9aLHDyrnrIgOZDJGvGhG5RvyKuxePgg8fsFbWrUyHH61g4Jv2OOVK1Vm5ks0hEw+/fRTTHto8JHzzjuPhfaipaWl0T333GMOgcOmcePGdOLkSRo3diwLYTR3TISYNrPuNdcwDQbatOnTqGsXTZsJSJYsXsxu2MVPP53dcM/+3/9MHvnj9h/p0ssuZZcBNIRI4rA1+RDyKowazfYtbuYVK1WkeXPn0YUXXshMItu3baPPPv2Mzjv/PF9ScZkY6tUX2uBwW7/7rrtZVki0sWPH0GOPDeK4hGZCaFi/IRPMcNheXLOm+U3gCyg0iIZb/V1332Xu8dGjR9GTTw5lvOjFF19kwgPfbCaGdm3pFUcUA/CH/Ai4KDoFBIwDAeDuu+9mggEaLyBgLV584QV6+OGHmWD1yquvMEHLoCVoNXHwG+3LL76kq66GAGOgyfqXmonBvSTOverQILjZBv+Lu5rjSmYLMVcGoDoMI9gMFjHxo2n/9mNUP/64nS64oKr5Jdu2bbX9vX//n1SjxsW0T8+wB+kadje04ydOUPdu3ZhkjAMeSXY0dY42KyRrI9xnwvjx1KdvXxvGoAnAIY4G5z0QD+zZxvvbt21nPgJG27RpI1122eW2Md588y2mtUDDwuOgRwOR39qmDa1ds8Yl0eM5NiTsjevXr2f9IUhAvViwIHwsOImO8RqJo4cJiRreYeqA0GOrxSBYIKwpVPPQegBOqDJx0BcvfrpJCpu/+45at25NFStVYgxI87+IUGZmhAle2Ei4TWzbto0q63ns8TJu7I8//jijGagwUfTI+t4IffzxammYI95fs2YN027gBuYUEPAcJqe27drR8mXLqBTTIEBA0EwMe/fuZWlwf/n1F3rnnXcZ/BamI7R37z6qVq0aux2g4RbzyiuvuHaZ2MQAuvGnd+GSufexUOfvXmXjRccixpFmFEFzdPPmM/anyQu7KMxRBPvWbVvpwmoXWksrsOo2aFCfPvtsDeszbtxYerRff8pfADVGNJq5t317tufQcFEBL0CDjxZ4A+gQQgSEWqZ1czQcgm++oQn00KR26dKF/Rv3w1tvuZXef38BDRs+nN26tWZ9SbOmTWmlfqBCqwFBmTcT/PHnH3TXnXfRihUr2IGGw7tgoYI0d+48Qkh8p04dhWRi+zFCLFsqeIq4WBN3DEYiLGeLwa/Pv+AC2rx5MzMfGLCvXbeObrrxJrrxhhvopZdeZtoU42yC9mTmjBms65Ili6kF0yBq4+PyiQsP9vCYsWNp0GOP2cAUahBwBuqMAhpRXEBgXrIEhNImD/v70CG66567adHCRWxcCAjwQ8Drv/zyK11zTV3at28vrV37OdWqdaX+ORp//2XXL0wAM1q/vn3pWUYH7p2vXIvB5wDWBQTusPZ4wRnFgFsY1EGilAH4CIYzXSQxU7GaD+Q0Y4IQIfp5x8903rmW9AlpGyouk3FHItSwUSN2U0WD2h9EbLSDf/1FOKT/V/5/1KplK0rRC/ucOH6c+j/an6XPRHts0CAaO2aMTWOMTYRbLNqM6TMY8fLfCimTt5H/fehvKnZ6ce67idkWa9WqxcZAbYMFHyxgz9esWUv162tqMcTRlip5huFvw9RGsOPzaYVhA3z5lVeYSp9pbAV4tP0cBd5txZrMVMvWOvGkgYO2Zs2azIkTzSltz5g+nXr07Envzn+XWvPREChcc+wYpb+Rzmz4112rOTZibNxA+j/6qKa6J6JRo0bToEGDiGWs0xfc5oNwbTPG9OAgasAmExCM54AbzkVQ/UJjwwSE6zUB4ZWXX2HqQTTYYFMLF6CUrHyURVkauiMp9Pvv+wimK7Ty5cszW6gT75lZmokBzKZJkybMmdarLDpP7yJtnmhL6svrG6JhwpYgmkk22E1PbcH+sChZ+1essHslSuLxjgyG518A06I+b0RzUjNBjBA1adqEacfQXn7pZbr/gftt4L76Cn7TbrPgBW+/8w4jlW+/+Zaua34duyA1b96c3ZahSXXSDB/FwAsIEIoN/yaYXsuULmOjd4gne3/fZ2o9IEDPnTeP0T7P35cs+YgJ7obwDDgheL/99tuuwlAyvLuLNVlRDE56h1ACWI0GU/RtbW5j3w2+PGTIEBo3dhwtW76UmjW1TCAGn3ln3jympbzl1ltM736YYKAJGTduHBsDvAc+E3zDt8OMIsuDsGbtWmrrEBBKlyljWtkO/f033X3XXcyJEo3XIMDvAKYetDJnlSYqmI/yGZEHOr3u26tpXtFq172aPl/7hdDMadMgpKdRyRIlg9G7vkiSMEexlJCZlalVc3TWYjAIX8uEb0Oo+A/x+KJf4V9w3rnnmsMcPXKUChW2p7a84fobaMlHS1if999/36bO4+eHemfTxo2EsDNIcHAcOXDgAOsy8LGBjKD41rVLZ5oxcxb7acYMXUBwbD3cgg3PeagA4cTGt+83b2ZREmggVNjW0LS8453Yv+FQhE3t1WC+gIBij4TQ3lCPwPUWF1VMDNp82rk0dsxYenywlrIVDqRwDsTNAhsNPgnQDnz37XdUENK7pP1z+B+CqgyH6MLFi+nAn3+a2qBRo0bSoEGP69UatVk9wxyJmE8DGKVMg3Dgr7/oznbtaNmyZXRmqVKUbpoYUpiWCCrU4qcXp8aNGrvWkv8EQANP86fGPeWKtgiWB8F7TZxzuneX+vv2sWLbqwbl+Uoo+qTqO95zG8SR3tXxJoM9JUWrIopoA9RikDUmIJxvFxCcfSFIGgICtJYPMAHBWm34IUDzZfALODei4dZ+7bWaCRamVpjUePW/ATsvIMycOYM6derM3lm0aDHddNON7N8wq4mqPPJ7Hs6GMJPC9s830DxMDzCjGu29995jY9qbHO9OAcEwS8re79+/P8HPA61u7Tq0YtVKduhDOwv+c+jgIeZjhugJGY/897//aMP69bR06VLmHIrIJVwq0VBYCxpNq0WYA7qZKMmWB0HrJdYgGIJMhDQB4W6hgHDvve0pLS2dXVyg/cTF0YYtB+pwrjw2cKBQQ+/WIOhhjlIq5b/Sojz/TIocUC4NwqpVjvhuyeILr0Ca2sRvm8JhD84tRuMFBOM3qYCgDw6N3pKPFtPkSZOZyr5R40b0cIeHmZob0QWMGAYOpLHjVAQEKxkThod9G3ZtNCz+6cWL25Zg8+bv6OKLa7Lf4MyDaAi0Xj170fNTnmf/xsF66aWXqu4jwRIHx7uITpwCAmyIXuLegf0HWDjm/gOaA9aC996j1jffTFu3bqMrrricCRC9evcSkiSEiI+WLqVnn3mGhfLUa1CPOnXsxDapEY41auQoGvT4IKuccyRCH6/2MTHoAsJ/HiYG3HQgIPA+CBDy8DsYL25UH330EdOQeDeJIJ3prubI1J+iuCT11fTf2n6byTZCfGjGCVQgEPiXA72YHLD7RTEYn/fjTz/SBedfYH6tKHCMFxDgK3X//Q/YnHNx8IM+0WCafPedd9i/YbLs1Em7aOAdvCtqvICAgxg+RGjDh4+gYcOGsn+vW7uW6tSt60Fn3ngH/4P/lVEYCto4pHeWRS0YExmjIhIMeRCkxZockEEQAP/BxQyCzQfvf8DCCletXkU3Xn8ji7iCD5rW7LBDoEGNiqeefpr5mUHLiwsYDng4VOO5W0BwRzG88uqrtrBTbwEB/iCHmA+CU4MA7Wm9evXoq6++ospVqtAXn39uOjdKQ4g8zlUVE4PKlkvJikT0SFIDjzi48W/70YDBIpl6HoQJeh6ElZwPgq27x9SKUQzGmjIB4TxLQDimmxiw3kaIDsJncANF++CD96llS8shCJ6p/R59lHmr4vaNQ5CZCiKaVqBrN81ZB7Ym2Jz4xeBNDLBZsY3oYPJlSpemP/7UKnwd/PsQldDt8IYOcfP3AgEhQswO9aZe4Q02vXZt20rx7jqkgV6jxRHv4mqOjl3J4R1PeCm+bdt2lJb2GvV+pDd9+MGHTFNTo7oj77xuYhg8eDDzMcCawMO6b98+zL/D8EHA2KNGjeJMDNqH+mVSRIhR8xaWBoGPYsCaIMeEpUE4U4tiuB5OjUfZrcNwHlr18SqmRXA1A/ceeA+mQeBmEI6tM7dIiknv5htsL4n3qlCwU4Dd9r0B9yp7V0SseQ12nTkZGoQdOzKoUqXK0suOWINg55FuDYJm6jKaTYPQ5lZ69x1NgwA1OFTiaPCZgYkBfgBGDKPBI58c+iSNHKGlWp49exY9/LAmICAaByYHNN70YNGY/i8FPsNrS/FWiRIlmAnvxptuFOPGQY/OVMt+GgTMYfiJQVjr80gfevqZp+iBBx6kL7/4gplxWaVXB+zHjh1nkQ2jx4yhfPlSmFZ88OAnqGCBAjRt+gzq1aunTUDgV8rug9COXn31FVsoJHJDwLnU7oPAaxD+EZoYYLJA8kH4cqEhaqpK5Sou2E0TmnOfOfaqp5NiAD5jaRAUxAmmQeBSLVthjm4+Gq9ffs5w+yDYcl8TEa9B4AUESGUIB5k4aSILDcGNFgKBEWrDBAQ93EckLdp8EEwTg/3LSp9Vmv7cLxAQ9G42EwOnQRg2fBgNHzac9YLggdhkPskTPwtuHAhvgRkCMbWJau5ESZagJZwzQrR23Vpm0oGpBupHJGG5+Zab6ebWN9MLL7zgUlnC/wDEi2doUKfee++9pi8HLyAgROlx+CDofiPo7ycgIOa7efMWpKJBYHkQXk+nFs1bMBvrffffT2mvvcbgAhygCa+GkCU4jZYvbyVaQv+oBQTVhZXuVYVNrDpHovrlIdjFtRjciAuqQYBTnWZisJpdg2AJCIgeevTR/qwj4u6hAbPKn1vv8xqEObNns3A+tOkzplO3rt3Yv2+84Uaa/958T38Z+DqAr/LJxfAufHHgG4E9Af8E3Mqxp6688kqWuAkhxX5NWovBg2beeUcLK8RFEJUy4b/UrOm11KVLZ3r6mae1KDuuASbwlVEjR7LvQG4H+KIVLqIlo0PuAJuAMGas7ZCWp1rWJvHVIEh8EAAXhMTVq1ezcea8MIc6PNTBE2UQIqA5McIo+c7RRjHYkQW/K5u+y1gJQzdvvxEgQ57mg6CQSdGXEYjnsADUnmf8bNcgICuilknMmsCmQXj/fRZeg8eoooYQOoRAIsEH4vfLl0fCIU38kgoI+tBdu3ShGYaTIhMQoMrDuxbspcuWpj//cAoIFmzwrjXC+Jo2a0YrmIkhQm++NZfuulNTfyGmGRv7sstgZnCnw4RjHSRlOMewb/NqMeDdywfBGtY+AWC7p317WrxoETvkK1WsxKIAEDkCL3/ne/h+fAOcTS+//Apav/4rzoRANHacFsWAZvkgAOca3r2jGCK0Zg1yNGgaBIR+YUNb1R4j9NdfB5mqlpkYWB4NCAgIc0yh0aNG0RNDhrC5YWOFqlTbfG6kQiCqU6cOS1jChEyui1cUg9ymJl44Gd5duTAcr8vfExBPDDSjjXZqwm75IGSYkTgivEt9EDi02UwML73EkvSYmYyIaO48y8SAgxjRCni+cOEi0ykbtIrfrZu3NYFMQPh83ToWAomG3AfQQDRr1lSkCmJ9wIcQWte1c1fz4IS58MkhT9Kz45+l4cOH0Q033MiigYy8C7Ctw8E6n+6zIaMZuw8C8iDwIcSOs0kn4z2791Cr1q2YMzgufudWrkK///kHS5p3042abwXfcGGrddVVWtKzEqczJ2skkTJgmjbNrUHg3/cSEAAhzDRGFANwAHyWLQseovEvOHHe5fBBMKIYevXsSc9P0SpuQsjbumUri7SyNR0NSKbUuHEThm/4ntj4QQRZI7uzcFaE7iMsFlF80exVzzwIzm0PJ8UBAwYSQgKtWgyFmKTI0mwaLoo2NXTQW429P6QkhO8YDYk/EAbD8yV4y8LJBM1wUsQoH37wAVO7oWGMr7/5moqepmXxAsxQu8HOjfbogP70zFNPm3sSy2nXIMw0nQr5BYN9zYgRRrzx6afDGcRqvICAfA5I5IS25Yct1LBRA/pDFy6woFCpYyF5DICgcFAu/HAhCzVCVkKjxRvvEydOpgF6Nce09DQWfSBk/o4lRUKg3npoEGArU6Y0ff/9D3r+AXtn5I1AKCVs/jdcfz0tXLRYs9roGRiHDRvGpHu0ESNH0ODHB9s0CEh7DROBvZqjXouBiD7/4gu6vkULZuuDXwcYJk8/v/36G6vCBkkfQgBCxyBgon3y6aeEkC7D6RQ5GCZOfI45M/LXCAgHwBMcljZt2kTnVjmXU/8jlDOLhUo5oxj8jlEhJ+B/9NhK7keS2aLcqyHs9tXBX6rVHLf/uJ2qcqHayIHCwhfN4JwINW7SlKURR+M1CAbekeEPeVDQ2tx6K72jOylCJc2iGPZqORSQAwHaL1MbyQaIMC2DERppmBLw6OiRI0zzZ0QjIdPs1KnTWPp6ns+Ax02ZNpWmPj+F4Hx4+RVXmPlJEJLXqlVLOu+88+mzzz5lGohXXn6ZOnbqxG7p+BuH1O2336bjTGQAi+iO21wtBkkeBMa/uR2JDIkjR4ww4cW+x00cJg4jzN7oj1B3+ACgnXfeucxfyohEQ1/gDhEQiGKA0zJMEVaTOSlq9YjQPv/8C7rjjtuZRgW+BIj0q8KFcSNqBPMbeRjgi3DDDQizTKEli5dQy1YtmQYSDSH4iKrAmWJEjIBmEN3WuVNH+v6HLWwcaGycbMJZ7rlkSZmTomBncz/5OylyM2uplgeaGgQW5ijMC+7eTNH+guQeyMtvtMP/HKaixeypOpHeE9EJaJDwNImKWIKeW25BGAsxj/TnnnuOZcf7779/adXHq6l3r15mlkb0w7vbtm+j6hdp8917332mypnPX27AgoOEzwyGmzMyKPKND3OEEwocI9EgwcIbGKp2Q4kDYQbmhuo1qlOhgoXom2++YZI3YpTHjB1DPbr3kJohosUv/55qFINzrt9++5WqV69hhvgnFZ8AACAASURBVDgNHTqUcNCLGuKiYabCJjij5BnMxND8+hZ05L//WA4D2FQhVKH16tWbnn32GaaRKFeuPNMcQRBEJjIc0o0aNWSx1ryK7fvN31Prm1sTbm1gEAgdguYFON66dSuNHDmK3nrrTTY/GBfiqTt36cIYF35DvDgSvaCByd7UsiV16tiRLrroIrbWoEeEvsLBEswEG9HZEm5iiMdih2PEjAEzzDFjB8uwKmsbN25kqnaj4bA1krkZv6EuDBzU0KB969DBrl7mo56uv+F6WrxIS7SDsfr160szZ85iNI4LEBx7+/brS0UKawnjtmzdSrffdpu5r26/4w6W5bNY8eJUpHBhdjGBH5BxMMGDHrwGyYWKFSvKopGQ7fHFF19ghyb2twH/nr17Wa4B3GghOBgh3Thg2915J709T9tLV191FQuPRBIoWbMyKabS8hUrhJkURe8iDf9FF15I8C1AA5+HgC5quBDgDDAa9jKSTgFeXBqQdffrr7VU7TB9Ir8EDnvc6PHNSOWOiyPwjjMDAgcfWQZcIXID2keWsvmZZ5hDOnwdkOoaGtLXXn3NvFTysCIFPdL2Gw6MmA/aIiRrQq4HCAnffP01TZs+nVZ/spqlg7//PrspyvguvtxzeloalTA1CMHInhMQdLHBlB7ckoUzURJutPA41ZqipkCXaA2Jy/mW8+/3P3if2bONtnHTRrqcS0aEmyQkRkhmaHCaQxYyjP/Tj/b4Y9z2cUOHoPPPP4eZl/q6devYe1hkpDXF7e/LL79gsfoozGNkH4Mzz9QpU21pYzdu2kRXXnGFCdsbb77Jbrd84zc2bv/w2D+tqBbSiPzsSNwENb3RYFMCYUAd99+R/1i8bfv299HMmdO1DS/0WFQILVXAOw5Lq5pjuh4u6rWuFs0MHDSInn5qHBUpVJj27NvLDmdGFUYOJ70ritUgTtjIRY7vhS8AhC1sOuBm7569jFmVKnUGXXllLVa7Ie21V5mQgE2BxDDY0Lj5QGCoVLmyiZY/fv+D2t3ZzpTQMf6FVavSGWeeyRyAMAfyLxhCCATHWrWuphdfnM0czcAMatepQ7v1/A7IwVC0WDFGHzgQYBqBVgd0BgHBWSsC36wJCL1pypSprjwIfvRu0Y4C3s3OVl/jX06829lCYvbqqQY7LyBUrFxJUyI76B044U2Z+Bsp12vqkU34G+YwaLNw20aD383oMYiu0vY1VgtOzLjAoPEhxfh78/eb6apamtocDQdTtQurscMFIX7paens4oM9gwbBF3sOpjaEJaKo2q233GLyOvQBrwQfAn2D5mGmvbZZM3p3/nwzKgF7CYcrtLYD+g+gkaNGUoH8BUweiYgj8EP4LcCPCOYJpGEWcyuBBqG+kQdBvmvwBBjq2qUbIXzztCJFWJZWI2mbRpPW+xs3bqIrr7R4Nr4RJgDg/t9/j9AZJUvQzl27GK7wDCGk2O8QFMpXqEBDhzzJDnkIYzh31qz5TMeH9lXg13CSXrdWO1cwBvgNTK/ffvct5cufj62JURcD/AnaeDia4lzbsHE9M9FA4EID3tCnEPiPLhBiDoRjw7xp8h8HipxRDBAQZHiXhypH7D4IJnMRWqAiptrFyoOwyubQor3P/9fOlvz+cpIB1NFTp02jH3/80XwVmwMhOrhp44AFoqDJMIgfHWFvQx8cyHAEnDR5Els4NCAUoTE4ZJD3v1rVCwmOkGgIb4Na+5wK57D854iRx+YwGhxabmp5E11yyaU0edIkmjFtBm3/abv5HFImUjE/9GAHOnjwAL388is0eeIk+veIlqYUcyPCAjfgdu3ast/+b9P/Uft72zMp3WAQ+B3MB/BAenzyySFWxkoBEuOFd1uipHRDQHBM6Fgk40/Y/aqefz7dfvsdXLU690GE/O0PPdSB3ntvAf3zj5aREDd5+GFAo9KoYSNqc1sbhg+2JmefTY/278+0SFCn4XZl5K7Ac/gZoDYGVHNGIRlEtGAs1MswGjYq1h0hlJD6UbwLtxn81rxFC7r7zrvorNJnse7Y3AjPhPnAuFUZ40Cdh+IwAwcOYFK5iN5VNQiKx7Q2tQTv4jH8R46NZtQzb+Rl2FkCL5YHwfBBsOMdOQpwG4RQy/MRHFCIhYdTLC4jCLX7ZPUnJq3i8MYtFxkTkSfkuQkT6IUXXjSfw8QKHtK9ew/zxg4YwCughTBMnngBGl5Uc4RzM6KlwBORuRQ3VeRVMGo6/LDlB7rn7ntYrRFDeDcmBF9DpkQUUCvCnPlS6IsvvqRhQ4eaeV3guT9ixHAz38ORo0dozOjRTEhG/hmjodbDI30eYTlheOdjPHdXc3QkSvLwdkElTGhhunbtQqj14mw8vQ8ZMpSmTptihqdDYAIveOjBB1lqd2SwhbMlGpzQe/TqQdWqVqNPP/mUXkt/jZAQj/8e5LGBH0TZMpr5FxV5777nbnZuGeZKrAPOLmhrjKJyCN+vXKUycw5FemYIEhA8kN2xX79HmfkDl1m+Ye0QhQf+5pU7J2onRQfrCGRi0DQIlolhlRHmaIgm/nzJtXBeP7z6yquEwjfOdtppRVhREajuULJT1K677lpW7he2aDikgfBBkGeffTZTXV1w/vmsaNOnn33KbH9IGV3nmrosjnfZsqW0b9/vwnGRxhkmjddefVUKOmCDxG1kd3R2hEQIgjDajowMBse2rdtZ1cpSZ5RiucuRHAn/cxdpcuyUOOHdS0BQiXibM3sO1bykJqstYTQRaEf+O0KLlyymLahud/IkO9ghRSONMTYUBD6Uq4XgUKd2HRabDdOMUUHSiU/gBx7cRsrmrKwIIf/ERx8toT/3H2B1Ly6ucTE1bdaU3RaWLl1G+w8coFpXXEHnnnee20wWgVp2C6vkuf3HH+mnH38kZENDwi58GxgRk9wleFcVEFQ2gwreReMIQeN/jBPNeH2DHXb1CXML7KJaDDzsEGhlNAu8IeMrbv9wxBY13F5x2EP1LWrQgII/GA35/9F327Yfaf/+P1il3QsvvIiaNG5CGzeupy0/bKV69esxTakoIRJu3uDpEM63b/+R1Wa44Lzz6NLLLmP7k9dggvcaVVON+bEHodVDA9xGrRYn7KjTAC1dfi46CX3cmRStcs9+ewUFpxCd0bz5dawsMmsSeocAhHw0yIkD4QAmyrp16lD1GjXYGYGU159++gm7pMFkAmdDrCW01aKGywecTMuWPduMgkdJAPAZhDvi4odvhukGAhmy/cLnAzjFBcXQDpg8MxJhGTK/Wv8Vu+RA6wztBQQKpGKGZtspXDnhUsmDwL8j26suAcG6G7i3qTPMcdUqKw+CU/tgf9v6Sxufc2j0WHnn+qKrV2olL9hZBTU4BelSPz+2Wa8qRcsDmVOwY2Kk8QUUNgKQ3B75PeDEv3OHqOBdVIsB46riHdUSgWQ+k5vs5osxLbyzt+z7mRtLBXZzc3HaL0jj5s0hhSUt1fgGVx/Ei2ZYrg3SNGf4JuN/fnjP1Ks58k6KBVNTfXOMxpPevfCe7Hs1t8BumRgymJnLdShJzqh47FUhvZs/ZjFTB04rQ8thBqsxx0g3l+NhZ/tG3zt4H9+ZHTQDAQGJkpBKH9FOzmqOKnvVxnuM/W6PPbO+hSEJDvZaRkyez2gItM4L5zGlslc1nAOXRCn5gHUN79phzCn8PWRn8EhccNAffgz2/Kfyc7V7j+40baoWxeD0QVCB3fheU0AwkW8D1g65q1jTylVMSvVqrhuQPqTJuG1hfRJM+Vw+VGAX7l5PyG2JzGyvS2HXN6Vt2FwE+8RJkzgfhDRWO8LrVAvx7iYg0DvUgs4oBk1AsBG/Ia24MyzmCprhDe4cHk4h2OWZFAXr7MNrRDxDzGeyCe8+6yj9HE/+7g27rBZDYD6TA7DL8JFTsHfr3oMVATTDHOET5szkqrJX7XkQvI9Rp4nBmShJPp/giUgQYb/ZtoUL735r7/ecv/3xg4ewR+i5iZNYngutmmMatWJhjt40YeAtN+I9UbALTQxcWXQ+j0a09J4o2P3DWvkTILq9mldgt3wQxLUYRHsiJ/lMsuPdt1iToit8iHfS8iDoAoKmQdDCHGX0J/tdnElRv/Y7X9LCHB3Fmgpy1RzNA54pZ3itlVDA4uQBRfmag4gHzvZvR40H50dI3zOEk1MX9kkTJ1F/PQ8CPJ/heOMSD3It3h05ohNIM1mIYuj9CE2Zaq/mGD29Zx/ssniYEHanvSBiVoaFQxu81G3athznM7mPZmbNnMlCjuEPxkwMDXQnxUTsVQd6hCYElVuP6wqVDXhXgL1HN1miJNFRy4mOVnIOdlcI5KQoFBBQ7tnnlql4+gfsFmj1fMeO72h+08V3tniNppYHIV6zeWsm/DAY3fPsgT2eTorWd2YP7NHh1e+tvAm7aqplNU2lHw6jeZ678G7kQYBzMiJAnD4I0WDgVD2b+DwI9kyKfli004xNg2AKDxLXaXcUA+eDwF8x4kuX3BfpFh2nBMX/LXP71mHS/s+hiWBKA1sHPyxG8TxBsBsptgQpmoMCaavFkJZOrTkNAnOOiTfe4wi7/FuzH+9MQBBoEIKuh+E2FeJd12uY2zaBe1XnYyr0nqJ74VthjpaWQchnEk3vAWAXVhb14pHZAPus2chWCw2CQ0CIlb9nA+xgjio0k114Vw5z9KGZQBoE1GKAicFKtWzPgyBkgA5hwfozxk2eMCHEJo/Y1IZ5HXZRFINrTUO8e5/zSBktcFJMTS0orLOhLDSEePfFO6/iz469KgpzVF5PD7VCdsBugzMW2oojf5cWa/JCapLAHhU+Ewh71BoEB0yBBASvMMeoNkb4UlJhwG5isDspJhWgSQ5MYkwMSf7RpyB4cRMQTkHciT555qyZ1EWkQQjxExgDyhoEn5HtAoJNenB7Qrh9EDw0CM6xbLG3vPYgmBhl9Ha95QN7IAyforCrVHMM8S6hJA4xbgFhsZYJU1fnecaOOoY/teg9GC9gqMrBvWoXEFBjQCHluVRz4Fzp7OSR8ca7/pEB6d2KYijEMjQ2MFMtC9bZsofHGe/Rwc6TojqPTBzeu/foxkpXu6s5ivmXjM94axA4GYHFd0e0KAYU3GHVHJFJUVisKYoP59fF+AZzmCjGc8BuhYD6jSV/LnsiRG4ssPPFO43c7m5uKFjp2GB312JoGXzz5RDsJmvODrx7cwC9FoO7mqPobBCeb6p1TWTChBfN+MDuofk2H+UYvScZ7E4nRc/MkUkGu5PFJgPshoBQKFUTEPycFE06zGF6tycvUruKRge7fGwneTk1CLZaDByP9IPd18TAT+ys5sgyKXJhjtEfvWpIDdrLDx6nr6KX/O87VlDgfPr7zsd18Ovr99wARS2Kwf9DfedLAOz+UKn1iAfsOWViiAfsLtlcDW0x98qNsCubGPI4vce8+PoAVi2GQrQCAoJHuWeX8kgERAC8x+sbXFK0ZOB40rtoClsehPQ0KlGipPoncsC5qznabqr2zzhx/AT17duHpkydSsVPL85K/KIHElXihs56RxAjoKU11lLV6gmc2E/6M8yhPzfTT3Lg47cs0lIOG+AgG2YkYhtBe4TUoVpeUX38LAsY/VcGj+3ao8GRtLDr1G9+LQc7mFJWgmDfs3sP7fplF0vricIiqAkRGO85BLtGM1oa76hohuXh1mg2HnjfuWMnITc+8tOjYI+W+96LLXCLzMciM3zarkg+CXyt73dqvLUZHDAoF3sIYXcm9zdS9KI+B6qvOvmMsVcNdsfIi/GrePFII229FoTF9iqLNtJ4m7kVRDxSkd6zE/a9v/9BGT/9xPjPRdWr0+nFi4v5exLCnmx43/3rbtr16y6qW6cuzXt7HqHInMkYzcNZ53kmobj5jEOD4GYC/C8oOsEEBJQ9DluIgRADvhiwBISiguPZ49ANcsUQyAT21wWDCQQDvkaFqNKN75iccOZtjvfmM77zJAnsorz/vgQRdggxkI0YqFOnDhMQKpSvIJ5Vxmf031OyIriXO5v4LQgIffr2oalTprJ0vOXKlTMua0yCzUrJonxMn6DJr9p/DT0Af4XX5VJn0ikmwNh/NN9iBXYMedYY39QxmLPZxWYHmzOK9HCfp2k9QtiB94MHD7FSymB8qF5YrGhRvbCRHe/Q7WjlTaxVjg/eDQ1T4mgmu2Dfv38/qyRq1yDY95nwRi9lHs4SyzaVmDfLEckHjrIv8gHEvODUgV1WvM0q8oMqezyWTEHLl8/kHXo3uL1FR5pK2ZaYz4e/o7T1n3/8yYYo97+zKbXIadnIZ/gdEBx259mUXXxGhve/Dh1k5aw1AeFtqlAeZ7WaEy1PyykRo8yh740F8d32PAh8LQbb604tpgA0helsPMvsL5oo6GAObhjCriFE5INgw7shJ4iKDnkfUcKn2Yr3bIT9ZGYm9XEkSlKp5sgjKcS7mKCSiWbMao5ItVwJUQwB5LRE88hspHcR+w3KktF/9qxZ1LlzZyqUmkrLWSZFvdxz0MFykr8nCd7dtRjEPgh+fMbXSZEXjVkeBNRimDCeRTGsXLmKCtmqOQZYSWXbp7fl1nNLBgAn0Cx5FHabgJCWTi1bt1KUOb12ZCC26cNhnTayoPdeP1gUq8GYw4gJTFysqaC7mpoEnEBkK5QqFL4zSKREHqV3J5aC4l3ZSVF81fFfpFMM7zONcs+qqZYDLViAznkA7926d7dXcyzpFhBUMKKgQbCG8UqU5CXZ++4EKaR+n6A/V3nfbygDSNV+vv39BooddtcMflP6cERbquX0dGrdyijWJHkxBrzHG3YLQj8kJB7vvlEMKnjz0rlIb5/cA8kcyYZ3C57cB7uwFkMO4l08tZjekw3vgMfQIKQWSqUVy+UahGSEXWqmz6G96p0oSYhBjuNYNGP3QfDkrRHKyozYNQirVjF1kNb4l6VY8WJ7rmf2UdzA2X7xgd3b/hLCDuSLwxxDvIsFXDnN+AkIMlIN6d3JR0SYT5696tYgKAqnLn7pr7k6FWhm1qzZzMRg1GKoV7++LSpJrs5MJrxrsMTvbPJQEXp8tpeAIOczbtj9TQwcfMgxP3DAQBo/XjMxsDwIXDVHX01B2CGpMWDXIKRR61atkxreZAXOT0BIVrhDuIJhIDoTQ7A5TqXeVibF+FdzPJXwiG+NuhaDA1GCVMtyscSZKGnlypVUyMikqKpa87F92u4HvMlZSUj066TrOrzCyt2KFs9fZPKdzYzlB5bfcx6CBMI+aeIkGjCgP4tQSU9Pp1YwMfjB5vc8m2A3VHzJgPesANUcY6N3NbbnmUbhFKb3WGnGr9xziHc3fXrROxMQunQmy8RQ3xrgVOUzki3uo9clr0yKQXikTUDwm1Qr9zyAxuuplvkoBg9FiJAFmXMpOYRwqo84CSIy1iqnQ+tJXoV90sTnqP+AgZyAoKVaZt97SuBd7cB19nKiRqRBMKMYEkbv8YFdxJETT+/JBTuDRoHezSiGjB1UqbJ/FEN28EhV2KPDuH7BkgbMxcYjvZwUA8gHnp8WiL8rIYkbUYFmlIZUFgqMjk68R3QNgl8tBn/YhSYGGRKdAsKqVfZiTbEuYqzve+xr33WJde5Y308G2J+bOJEGDhhg1yD4Ys6PaXgPECveYn0/EXhXNTEkI+yKy+2rWFIZJ9rvt91ClaO7o7qMSj8DMOTTC7zs2JFBlSpVVvlkL0+twO8rvSDolKx4t1Ity00MyQq7ylpkJ+wqUQwqMHv4IOBz0Cz/TFc1R2mxJjvbdSPGSPqiP5FiTvRABc1u2N1XAq9xBJKwic28C7t3LYYQ72qpkolYHoRH+GJNi6lgaiHLdSmkd443qexVL1aWc3tV7IOgsk9kNz/+O5OBz2Qv3s1iTYVSaTmLYuBMDDZQsp9mfv31F8rMjFClShV1SBJ5NsWO9+49etC0qdMk1RzVYbfCHLkDUObxn5mZxW6YRh6EVSt1DYJpzFMR54NsIDeiPKuOedxrhGwk8FUk52E3q28lAHbPcs+eVSXleOHxnkjYPbdUNsOuqkFQkeCl9M4Qm0vxnkdgt0wMGVSpsqZBSA56j1BGRgYtXLSQFi1cyGqC/PPPP1ShQkVq2rQJ3XLrrXRJzZosY6pdJDE4P5e1MwF8Rkb3bidFPVGSidjso/e9e/fSN99+Q+vXr6cli5fQF198Qc888wz16tVLrlWS8ZkcoPegGgQZnzE1CM5EriIswPlqAOeDwAQEW6IkvwPdem5bavMPvrqT45LhkSVSBXZttGAHvMxcnFdhnzgJToqGiSGNWrVs7RkdekrhXZF0WFn0rEx6xKZBWEK2TIrZTe8BYHecGe5dE8JuMiaRgGDjMwnBu6h4l521/d//baIHHnyQNn+3mS699FJ65JE+VKRIYXrvvfcoLS2NFWIbO3YstWnThvLls5Km5zTsloCgV3PUNQiB+Uwc8P7eu/Np8BOD6YcffjDXe9KkSW4BwWeuRMEuk1IMcFwCQokS7kRtKrBHkDhcLEY65GEiQ0CYoDspmmGOLgnJY2bh6SpWeWgVsgythP4PL2lMfHILnezsw6qJyUgUhQXPnz8/h5vcAbs4MNcOuzOTYqvWSJSU83iXwe6uZa5vxxymGbkGwQBMxDaSA3Z/XpB7YEdYNoS1/PkL6AdhfGG3TAw7qHLlSnHjM7HQ+86du6iyrs2oXr06bdy40Yw0+/fff6ljx470xhtv0DkVK9LcuW9Rndp1LCHQwcqi4ZGxwG7kQbBSLTtMDAnm707Ys7IidNlll9G3337LcDRp8mTq1bMn44mJPJvsyny1s8kJe/fuPWjaNM3EkJ6WRiXMTIrBYA/kpOgMc3TmQVAU3ASXefebsrH85vB7LtMjqLw3e85s+u/f/6h3r97czTp3wG4nOuMvDwEhPY1acXkQ/PDj9zwWvKvA7qUf8oPN73lQ2MWpllPzJM0kE96dt6qtW7dSp44dqWmzZlSvXj2qWfNiKlv2bLkMpK601ErF6+qWjB07qLKgFoP46qBaMsep8PTnM4cP/0s9e/Wkl196iU477TSmLbj11ltt37tm7Rpq0bwFQVi4/fbbad68ecLLaHbDDiBkGgTp/VVyjY4n7L169aTnn5+iCQi6BiEZzyYnj5TlQQgKu2eiJOdgLidFR6IkKaOV6OoDL6REghTRiTfT999sFsI1wxJsUTfccAN16NCBxo0bJzRWeM6Zg7A78SPD+6SJEzkTg54HwXUCBMWs9/bOizQj0yDkJnpXpRmp5S8J6H3L1q1U8+KLKSsri0qVKkXnnHMONWt2LbVr15aurFVLMTGfnN79izUF5zOx4H3Dhg3MbLBr1y668sor6d133qGKDsEFFXnr1qlDGzZuZBkLv/76a7rwwgsFLDR7YWcCwkw9D0Kq3cQgwgl+k1ud4wf7E088QaNHj7YJCP4SlZxm8CQ7YO/RvbupQYCgCA1CNHs1WCZF3QfBZWIQrGAkxa0ADhLjo37YSsRI188q90RNaudhhwUGDj/1rqlHe/ftpYEDB9K4seN8bPMejxXBsIOv+JIDdqdUyf72GAqJkvo7EyUFFd/jhPegsPt8WlD3E3366PDur0Fw02yy0HtuxrsTdmgQLr74Yjp58qQL4bWvvpo6dHiYWlx/PZ15Zil243Y67fm5LMUUxRDjXhXRO2oZdOrcmX3r3XffTS+++KKVyI7DAEyJffr0Yb906tyJZs6YGRO9x4tmTA2CWYtBFsUg4vnR7VU/2HkBYfKkyUxDkxv2alANguxsCCggZOmJkoxUy/Y8CKpHdU70wy0CkjW8eWvWrEk4+H/++WfauXMnHT9+nNkQEctcpEgRG3jbt2+nHj160LJly9g7PXv2ZM4rKZTCJPCSXJUsPP/ll1/o999/p1q1ahEOiu+++44OHjxIF110EZUpUyYnPl15Tluq5bR0as18EMIWFAPxjGIIOnfY38KAl4Bg9KpQoQLVqVuXGjVsyMwQECgKFiyohMZkS7V888230PvvL2CCTr9+/ZjXvah9sno1NWrcmD06rUgR+jkjg8qWLav0zYnsZIY5muWegwgIiYFMpEEAn//pp59oz+49zEn/ggsuoFJnnKFcrTUxkNpH9S7WpA6Bt4DgEJWc5Z41HwQUa3IUp5BeVH2kPPZY7+Po6q+acXy0/v6xY8fo008/pTkvzqG1n62lRo2a0PPPT6JRo0bR3LlzmS0OwgNuEFdffTVNmTKVypUvx9QxO3ftopY33kjf//AD64NWokQJOgPEQETNmjWjOXPmMMFh65atNHv2THr7nXfpiiuuoNdefZWGjRhO6WnpBLVe6dJlaNOmTVS4cCH/1VEShrVOzq7iV9XwPpGlWuaiGFq1ZuOjeQSR2L8n0bALPzi+NOO9QP54dwoIi5cs0Yqa5QLYrW8XbECeCBKwV4Pg3YDOi95VBARjTqSMP+OMknT+BVWpw0MP0f333+/WKDgAVBcQ7DSjArs5VQCawWXl0KFDzIkaDmqdOnUSovTP/X9S6bNKs2eIYli6dCnjZeJmByBRsGNcCAhdUKxJRYMQgM8Y3xUN7DYNwuRJ1LJlKxoyZAitXr2ajh49ymgEeB8wcCA93KGDP29Hj2yAvXsPu4mhZMkSGhcPeK7a8iCI4OaRGsnKpAEBizUphQrqaJXjTba01huid79av55tdtzijWCNBg0bUMkSZ9CKFcvZwkKjcPjwYfM5vFYRDlSpUiX67LM1NHXqFNq0cRNt3baVQVn9oupU85JLiFKy6IorrqT69eozgvnkk09MVWaDBg2odu3a9Oyzz9oIBuPefPPNrq/1w7vy4czNFg3e3eWetVTLXkmmkgV2986Mjma8mYj//lcKc0wQvccDdt8wx1wEexABwbmypxcrTne3v5va3XknnXfueUz7ByGCp3engKDE9wUkFM1edQ4DPnb66aezn6EBeeedd7RaKrbMDJagDyEClx58w6uvvkr3tG+vfgmIkc/I9qo7k6KVByGnWXtAMQAAIABJREFU+AwvIDzcsSOtX/8V/fzTz8yn5djxY7R3z152dhQtVpSWLV1GdevWTQr+rqZBkFGs9buvBiGSYhFVsEyK/sxUTZJSFrnsE0aI9h84QB9/vIpJppCSjXbZpZdRr969mHPOb7/+RmnpabRgwQLzOTbW3HnzqLBeiGpA/wH07PhnGSEMHTqUhg0bZu47OAZ9/vkXNG3aVPr+++/ZGNAylChZgu6/734mnCxevJiKFi1K6z5fRxecf4E/Yph9MsCt3X9EF25E3MCdKMkQEAJMkEOwywWE7IddamJQPkGUO1ofF+LdtdCxCAjGYChcVqNGDap9dW1q0qQJ4YJhqOOdYY4BKE29qyIpbPnhB7qoenVTQFi0aCFde+110nlKnnEGHTp4kAkITz/9ND366KPqMKn2VITdYKYqUQzm1NlE77yAkC9fCl1T9xrq0bMno4m///mHhg8bZp4tMDVs/n4zFSzgY6LKBti79+hG06YFqMUgWVO3gCCNOIhQJCvCVNBGuWerWBNHCfgnGnfttUUfKxWrMaB1DGYjOAH1Scae88Ic6vhwRxMF8EWoUKE8paQgSUiEjhw5ysKh0tLTzQMeMcLNm7dgEa/IHvnss+OZgDB8+HB68sknbehEH6S1hK+C0V5++WW69972dPz4Cfr111+pSOHCVK485hTdyCXJT6yIW8fyCe6KUeKdx6I0k2KUeBcnCUkM7LaTkidA23TqNBML7CczT7LkNFOnTGGHypIlS3RTnB1Kt2ZIQu8M7Fhh5/eUPnMcaCZ78B4d7Fu3bZM6KaqecUY/7FuYU2FevO3226hH1+50UQ3tQDZqMXgnxYmdR8ppkmjp0mXUokULXUBIpZUrkaqYy0To+GBoSMEH0ZAdcOKkicyvStwSC7txWBhRDIVSC9HyFcs9Ui3boYwO79o3+Z1NvIAA/xT4okFANDRtq1Z9TE2bNmUAFShQgLZv206Vq6Bwl5reN1Gw8xqE9PQ0KlGiJIc0By/x4JEpkawIwg2kjR/KlUkRxZoKWvHdfgKj9dyvp//2lfFM/k1jFvgatGvXjj1q0LARfbL6Y60bBwbSkcK8AAdDqN/GjBnLSh+j9e/fnwlFMgEBfaChMDYoNAjQXuR3ZSnjpvVBgeix7Jz2w6Yq3r1rMSQX7IikOfDXAQZUSiRCEexYGx8zomgilBJJYRoZfs1x3rLfnITkkl/s2DXf04W3fPzYxhRZEVq6bCkLjUXSmjvvvJMK5MtvwsCPkWyw2/GibRIef7kJ9v379zPtoeE/5M9Vouvx3nsL2GEMtbOhVUj0XnVC+tFHH9H111/PfoYgAxt57Tp1pNm4q1SpQjt27GD9kfXzueeeM4fMbtiNiV0mhnr1A0eLxRt2XkAYPHgw813jG3zYzjzzTIKvG84N7HmcI37a8UTzdzUTg4TeOeAcGgQ32Pwv7mqOcFLUne7YbcSWjFrjx5A/TMMmP5ohwfE04HHU+Z2CghUxXpk3by61basJCE2bNKUVK5c7VRyEW1+Xrl3phTlzWL++ffvSU089xaTCAf3707OmgDCCnnzyCZeD4KeffEINGzVi715d+2r64vMvLOzHALuOVU6GE0h/ccI78iD0d1ZzTFLYGzSoT2s+WxMdRw/fCjEQRwzgRtm2bVt68MEH6bLLLw+8V+2g+PFIMeDbtm6jahdWYw/hg7B8+XJq2LCho7M1NpwU4awI3jxixAjCQWjf6mp8Jh6wawcF0azZs6hz585USFisyftsShTsQ7g8CCIBAaBXveAC2v7jj0xAWLtmDV1du7YU78YD9yqLnugXGAF/98O7ci0GH/5uExCclyknKTqjGFauXElQBzk1EExWsGVI5tI7mg/kO9SEWQK8VPqS9J83921q2+4ONmGTpk1pxYoVmmTNwZIVyaIxo8cwh0M0eDFPnzadipxWmB4dMJAmPKv5IAwfMZyeHGI3MaD/p59+Rg0bNmDv1q5Tmz5f+7lQ+g0KO48lE2QH7DxpxYJ3W7nntHTSUi1bLZlgb9qkMa1Zu05ORJInmnSv0SPz89BlWs2JFUpWPNP+lZUSIWgI8P+aB7CmbNO0EZpKQtMA6OPov0Uoi5DyFtooOI5VrVoVaffYWNrM2gVDm4X08TEG9zxFgwWD45186MleTCzsQEhWRINLg1P7vmSAHUl9gjSsKSKIEtHg/W9oJt6eN49uu/12117R6MPOZ7z2qullzvElGexOHolQbThRokFA+ODDD6lF8+bu/au/aFza8P+IeOjSpYvZ182/7VCI+HsssBuju4s1WWGOfmeTHK+xwc5rEJ4Y/ASNGDVS2+UcM0TYPHzNICB8tmYN1XEICDkBu02DkJ5GJUuUtEAOcK5KnBTFIyC3+UCPKIbAhSkSsXMFmgSkE4WEjwZ7EQQEZ3P6EUCSnTx5MlPXDej/KD07fgITECBtG0IEPwYvINSpU5vWrfs8iq/zEeckI8YL7yomBvlH5SzsUSCbeyW+sGdvHoT4wu7GY3Tju/eXSF6ObmxVeo+Hk6LzO6pVq8ZUyOAj4BFoGRlaLQaVpgq7r45aMFm5/5WjPXv3MK3nm2+8yXwlRBiGOhzOl2gQdD5cuJBu0M0TXt8QH9jla+4UEOrVry+wfieWZpx4t5sYHqdRo7SsinyDb8LmzZuZgLBmzRoWwSaGMvtgd2sQ9DBHBSLlofRPlMT1dmkQVq3S4rvNFkA00R0KVVBm9FHpa/t+/QUlASGSRc888yzLlAipGo6IiFjAXQrZBQ0fhJEjR9ITgwezpBg8PJ99+hnzcEaD7e/zddrtNlbYFdZTHlgrQpgH3p0CQstWrRRdbRxQBlqoxNKMGv78SVg8jkSQznRXc0xF8h0HzchgC4Q+fpBALwbHuwouA4GQYNjjJSDgZt66VSu6o21buuSSS1jKZj7zYhABQXrwe+xVVbzXv6YerV23lh36Tz39FD3aTxyZgNoR51apwobFobZ7927FJG6JpZmZeh4EabEmJyICEVt0sPv5IGBUpPN2Cgi+a5Zg2FVMDCogpGRFIqb/lnaiQeeKf7hrhUcys7Qohgl6JsWVnA+CrbvH1EGiGDCMGxTtN1GoiAT2ufPmUjvDB8HQIBhj6+Pj1vfYwIHM1wARB9OnT6f7H3iATcU7KY4cOYqeeGKwa/15AaFOnTq0zlB/ixxAA8AuxaQQN7HhXVzN0X34u0IwPWhG6P+aANhNKONEM7HgPWoNQlDYbSKotU6xwG5b7UTu1WyAPdoohvwFClCxokWZg2n7e+6h+x54gMqU1hIL8VjWoqCIMnZkUOVKleV+adlE76gZAO0mNJ0PdehAc2bNZqYt5x58PT2d5T1AQ84W5HBJBppxplpW1SAkEnapgMCtqU2DsHYN1b6qtiRM3Q1pomD3dFKU8hndpMmF2PtrELgtwTQIA0Vhjr7yUo52EAoIDoigdmveojl9svoTQvpVmCGY7dghIDzxxBAaOXKEv4CgaxBy9MMDTu5OlBSmWg6IQtY9agEhmsnCd6QYCKpBQG6Aq2rVYocmHPxQ8KhYsWLS8c08CLqAkNNLgZwst912G0sff91117GyzvCwd7aHHnyAXnr5FfYzzAs33XhjToPO5o+tFkNiPsFPg4BZRSaGxECjPmpMUQzcNJIoBl2ucYg3mVlZLCeAkQfBWe7ZBr6naMTlAvDtZ0eK1d35ovG3G3bexHDF5ZezSmbO9vHHH1Pz5s2ZUxMk8UGDHtPzJBANGfIEC3uEUxLSl86cOcOVtpLXIFx11VX05ZdfuuaIBnYMIn9PQDC++BSvLUby8kFIdtg1TIg/PrthFwsIBQ3vRknoVnLALt5tRkyoLLw7OWHfulUtD8IF55/PtIUof1y6dGmW6Cxf/vymy6l9wSw+Y2oQMjKYtiEhe9XQ70pVcdYDXHIQSQHB4Kwzz6LFSxazmjBWixBKQlerWpV279lDjRo1YhchmBlyGnabgJCayjLd1q+vmWzte1vMv+LOI3W840Js1LR4tH8/euZpZMe103u1ahfStm1bGR4RXlqv3jWOjeI4mxyflAjYmYAwfRrddNNNrOy3VTMo2F71zIPgHApOiki1PGG8UaxJMzFooYwsYtr08LTU0NITSyIOBejv0ZV/xAsImBT1Fjp2fJg5IIKZIwtZy9ataEfGDlZ44+tvvmFmBoMQJj8/mfr17cdSKZ977rm0eNFiyqIIjRwxgurVr0fdunZjddUNR8hSJUvSb3v2mI5Awg9VhN3z4Isz3idOnMxyP8CBCdklW7dqLV6jJIRdNTGJV3yy+7Mkm0kP3TWf2kxGEcrMzGKx5VM8EiW5GZ8T1YK544Z3zn/GAbsyHj0EMqGglgOwyzQIxYsXp7PPPpvq1r2G7m1/D117HZ9xUB3vYg1CdDQjw7sfO3cKdGvWrKXWrVvTgQMH6PY77mBh20YKZvA6pFXu2rUryxI7e84cuuMOLbrLn88Ep5mgsM+aNZs5fpq1GHzyIIiFWcevPnvVD+/IYfLWW2+xQVEm/I033rTV6MCFEmm4UZAvX7789O78d+nm1q0D+pjGn2ac5Z7NWgwuju5N78FMDI5aDCzMUQ+tkZz20p8DiAGq1S2kc82dO48trtGgdsNt4corr6DffttNb897m6XIROrlF154ga65BhKg1dav30CNGzdihZ3QKlWsSAUKFqRy5coxbcqhvw+xEtB8dMSgQYPYnDVrXsKchpKleeE9LqmWE/ih2UkzsXyGSINQMDU1gMNnsC+NBVaVd4NBE6y3yvzR9nEKCDVqXEyNmzSiRg0bUa2ralHlSlXMjHiuA1LhMwwBAReLSopRDEG+RQEE4XBIG49qjqg42K7dnXTnne2YZuSrr75ikVm/7d5No0ePoh7de3hfYoIA6+gbDexWJsVUWr4CmSBzppojYD/411+syB/C3XH4o5U9uywBRpigihc/nXbu3EHp6enMmR0N9ICEfDBLVK9RI8B+jwHRkle7d+tG06ZrqZbT09KoBFd1WPiKZME4AUHvwV+LHJ/oTJS00hbFoEgSrJvV1/mWfBSv8b1h52/3Deo3oOtvbEGjRo5m2gPjfxAYkJMcqkJnXXiYFpA6uYNerQvPb259Mz038TlWzRFZyI4cOWIWfMICINQIpaOnTplK994HhyCfNKYCvBs/mb5iQhTED+9IlGRVc0x3FXtxE5Yc79kNuxi70dFMrLBrAkJvpqlyplpONL3HCrttjbN5r8Yb9q3bttDFF9ekm1u1oi7durFqrdiTyBMQE5/RkWQKCDt2UMVKlYw0FZrQkeC96kXv0OjiwgOHxQXvLWBCANTfMEHAgRp5Dy68sBoV0GsGxBvv0fJ3lwbBFBDkuyZRsCOlPhLlga8bDesNXCJnRO/evZnGeOPGjWaRPvQDnlF3Z9++fbrwlf2wAw5nFAMEhGh4pFCDIN48EWaD12oxTGC37FVItcyFOWrv8f8NJhkpHnUuYR8/mIQiOIqdTorLli2nPXt207Zt29hBfv5559HZ5VDi2Rv2Awf2E+ya5553LpUtY6+fnijYVXRV8cK7LVFSuiEgeF8NvPCenbArUZpjkf6fvesAr6LY/ieUhB6K2FDBjgo2RFBAxV6Ap6KAYgU0QKIUKfYOFpQizQRBxYSO7f8U1ACC71lQiog+QTBR6WCh1+T+vzPbZnZndmb37t17E3a/7z3J3dnZ3545c+bMmVMShV3VSbE88Ewq0d2OBWug4IVOx9alHs1PnnHhmQp6htgi0wdBPqLxzVXv2DdsXE/K1uPhLx6PoiUBNRi1SgEsRRON3VnN0ZYoKQ5bcqKxOxVrmuP4NXGV5o75zd7W1QQ5KbpDJhYETJRkhjnqCoItz73qh/tpx0ZeySckvoPJg9C2LcybP9+pZKh15Qey+Ywf7KyMokDSeAPC7qYgpDp2t4EJG7uqgqDCTGFjV8Gk2qa8Y7eXew5zriaW3xl9yjJ+BiRnRNidmRTFxabsfXDFYQJkZKLpbkKOE7tKHgT6W0RzVbcgWGgsHdXJDfYwRzqKwb4bY5+29085NLpQ3E4jbMqmJ7JruFaBHtqkz0uUxKM/f0eZXOxuuxhaIAWBnVeLAfv1S/cwsRucEBTPxIO9RK/mSDspqvggpAJ2NmbGSAst33EejtgtH4QiaKhHMYgsDkHP1VTi96B4BhWEnsRJMQPmFTqrObqtTSrOx0HIyDDozizcZspznhVCvDZl52STCsM8HwQvc9U8YjCJz6zs7DLvKNY0fwHxOFXXqiwbEWMwkWmmkvsy7NOmTYPbbruNwETHF3Q+UbkceWJ0HGFit3DKiCT5IgXsrJNiPrRv10FSTU1XyFx4RkOVeOyOr4+TZ+Khu9hJkRkE8YAlETsDSoFnUonunrDzkkB5pLtlQbCnWk4wv/vAbtIm2XPVBbtbLQanGOHROKK7sTb1zs6B8eOoMMfMTHK0xJsjbiuHs1iTizjXFITBZh6E+Qv0Yk36G8TDw7nDY1TyG7P8KssfvnaoPT58xHASpojX8ccdp53J2YiVqtjtBPA2LbzRfcTIUSTPBTriYA3x9lSYo4g+bnQPE7ubbSls7NwjBqosuqkwJYjfD1e6y8MraY0nfjlj+SDwazEkcq6Gy+/utAqK7tJiTYpbDZbu4WB32wb5l5H+sdM+CFoUg1aLQSYL7bLDUhDoJwX5+ktJmCPtpDgf0itT1RxNgYev0bQVN52Oko8qG3q2NwYv5ZlIYd+7Zw+gA9HNN99MHBKNa8zoMXBzx5tJhauq1apSm1zsNDWwS/OiOL4/fuyjRo4idSeIgsBUc6RepkB3e7UzByMkALuYgcLHXopRDH36wpixY5gohkTze2rS3ZZX3E3O2IWFkNecZRITI2fcsafp4cvFxcXQ8ISG/HxKdiEYmowse3TPy82FrJ49SW4dcsTQRndSLEc8w9RjSSC/5/QWJUriSUpKhaHz6GPVhZhW51bp4ioIWO45Ra/Zs2fDhAkTYNeuXQ6ENWvUgPvuv58oD9GlUSC+ao6HHxVFi1KQToqJoqrbgpqodwbVb6pg95NqOVWw+xmLRGM38iBgZBzmlAkyD0KisfuhZyKfyfakIIiRMBYEU3kQFGnBndEg6ohhgeGDYG5e9WFI2Gjo3gb2Ykf03xT2PXv2wM6dO/W69k4iYLxqjep6rnUjN0OKYGfQMmS17YiJwSMYujO1GPILoEOH9roJyBvdk4Gdy+L6bo14SijyTBDYiYLAsSB4EghJwu4Jo6hxIrHTZpJEzFUP2A0LghXmKPCxYqwIwczV0PndpDt+I1XNJxCG0eiWNyEXsrLQgmBTEATyXXmuhoAdBUxC5IxP7MphjhJ+92RBwFoMeMRgpVpm8yCImda6Y83pOCdKIoSD/QNs7yjv2HlRDI4xjejuLhJjAJiS3JlqubKjfocn2RrRXUp3Org/jLnKC3P0NKZG48NMzohoFHqxpnJMd98WBBtNPCkIbmGOviaG8kNhSEdlMB598ssOdkcUQ3us5ugnpYo6Lb209EZJb6294JC1jT/VsuwN4d5PHiXj/85EYg9MQYj/M333kEj6eAWVm5cLPXkWBEFHqYTd67cmGruyBUECnFUQGNR2myyA0wfBxYJg78s09NsrOXojldHa8ZQEu6cBPEyxq1RzVKe7t3El45MydI8Puz0PAlbVy0BfHd2c50Xp8s7v8WF35iTV+4uwayKEIi+bB6Ghd2W6nPB7UDxjRTFkQOG8QmhD12IQyveI3x30jwFk5/SGceO0WgxsNUf+SiiSM1ILgvlgTFMQBg4cSGoPXHTRRfDJJ59A5UqY1xzdHfEoXD+boosHmHqGphho/WG4hVFCFitBpukVIbXfTRUCG2sd6+c7MYiRNKHkhnlp0fh63yYGPCrT7zBVD/G9Bkn1pyLshHoY3fHYY4+RKIY333wTbrjh+jJOd809I2yeKYmVwqCBg0jO+8suuwzmzpkLGVVYZ17uhDRlnQ+hR6cbx+loGn5kfYnvi+6kDnax2h8GdkNB+OWXX0g6Z7aqbTLkTDD8TtLYhS4jASZNnAQ5OTnEB2HOnDlw8cUX6TqZunx3xW6sG0axjMDWphDo7hF7v359IDc3D66//npSUIqpxeBBzigrCDhSWNqyf7/+JHzriCOOIPXEo6v8UGDNmjXwww8/kOqTWNjmmGOOKT8fF/KXrFixAnDhwMpvH3/8MdSooTvDxoNDstbLVAF69ytrK7vv+TPKIXZDQWjfvj1Tk8YzbaIHCAWKfi2CpcuWEvlzySVtoF69IyLK+KTA8uXLSTVPpOP06TNIeXPli7aSWWGO9AzmGxwOHjgI/fv3gzFjxyq/K2oYUeBwpgCrILitktScs3uJi1J6MjZvW9+cV2k/2dsx5gaXoYqws2dgaPlMnTLuh/Mci75dTAGs3jlr5ixocFwDvZE3OWOzIDiFAP2LZkHQFIR69eoBlk5GMz5ehuGfPiQgGdxJB1YICLbVntHyu5M75omBdkShHRZoRxbkmIA0N1uTp8zs8CSNA7ajo/2s+1r/Rj/af8m7iXkpwq5xjUb3NWvXwo8rV5KSpc2aNYNjUOtk6E6dnodB95hVAyB+ngkX+8qVPwJaZCwFobqkkohtkku38O5zVf44RzFgHnJuGKR9Gp8gbVg+sBsWBDTjVk6vzJUzQJQ7Y5ZZ9WKZKheGjJTyu9mRgoyMn9/Dxo4Jp3DnixaEVq1akTWGYPAh38PGrq9khjTVBjyJ2L///nuSJBDlz4wZ0+HoowXWYNFc1X9PK43FcG1Vkk7onT1w4AAYMWKk7oMw16wpTuih4KZDeyKEpfkZPg1u74uwA2BxIeKDkFEFJr05iTi4xHMdrnQ3yqIbPgh4nop+HfxZpsJ52uyi1GJJgXP5dFYvHMzHx7VGCJmlfGI3LAi/rP6F7NAOV36nhz0e+T5p0kTIyXmAHNd8POdjuPiii5XET0R3o5CTNVf79OsHE3JziQ8COinWqVNbYXXW9RqqZVosVqqpuApyyp4Hga7FINx8CBQHhdcxzGG2573Ia2du8tPWF69rr68rK9h5UQxlBTtPkiQL+6GSEuhnS5SkUs2R/gYGu27kYWs4KMlObqNQ52o5xm5GMWCq5YYYxeB+RXQX0wdpMyEvD7KysiAjPR0KSSZFvdyzV4GbTPmeIvzurMWACoLzkskZqZMi3SXJg4C1GIa/ChdffDHMn78AMiTVHMWbCtWzTyXdRTY3Fe574EJBpknXAVBA4L9JMNgZBSG/ANp1aB9CFoRgsNtp56FX9lFPD/Ib84s1VXZWUxMMuCcIXK1ChZM8vCUMfvcAx5NESCB2f3kQPHyoB+wqIy7XFmW9JBZ7rlHuWTXVsgc4ieIZGcXE65/yhl7RNs++qXd2NlvNsTZfQZDhV7AgWKMgSpSELUzFCf8hGTjHbWF7GQfo91WeF7Txit1BUJV3u81M2/PWn9SNkLAzqZYLCqADSZTkovakEHYLpT+e8Up35ljO9kppLQYFnuE34fN7kNhlAkM8t7koqO7KH3ZuLQaXuerGMxHdLQtCekY6zCsUWxAifpdyC7gnSlKfq6wPgqtsjUFpSYy1ICxYQMxB2kU/LFw5PCmxiqLe+Xr1VTwk7M4vYX6R0N09sU5wdOcnSiob2I0hZ9EmB7tMQRANdypg96zcc2YQb4eQivweL884LQgyiUULpkTIyETye+Kx5+VNIEcMRi2GVq1bWxbMuGRk4rHbZXRw/O4Pu5uC4EXOeDpiwBzzgwcNhldf1Y4YFiyYT0pzRlf5oABrQciHDu07lI8PC/krZApCyHCi1yWIAv6OGBIEphx0a2VSDL6aYzkgj6dP8F2LwfYWTqplsaqmpVq2FIT58+dDRoauIKia1iRbFGY/TLspyJRzcl/WSDc2YDMjctJu/KAIJNHHXe0UzPGhDJZH7FaWPPFxjh/so0aOgkGDBhKPe8y+hQlgZDtKL+mDXcP5yxHdseqpajXH+PhdTWakJt3LPnZZueeI7s4xduN3oiD0zCJ+bYXkiKG11YFMhtLyw+7elhJrU7j8bndSrFW7tmmN8bI2MQqCbAxwZzR48CB49dXhmpPigvlajnnbJe7HumP+S8kRR2vtto7KsKsNj9t6WP6xjxo5AgYOGkwpCO0sTxrlSaZKabZdoniGvCVk7K7FmjzwezKw8ySyt7lFtQ6Z7mFjt2oxFEPDRvIoBprjPfG70pQKj+5iOBwZ6QG7m5OiNx5Ueqlw1fL2rtSke3bv3jBuvKwWgxw794hBRCC7grBgAVusidEOvThp6kPlbWD4TCDqA5NGYKKnU085FdIquGd+8IPDzzPqipU7wwdF9xEjR8LgQYNYC4LiXPP7/UFhR5irVq2GKlXSoWHDRoqotWZBY1c9YvD7XrWFJhye8URo5Y1E2cBeQTflFRcXKfNckPzul/Z++S7R2PPyciFLUs0xVbGrjEWY2AOMYiDpnjiX8bO1mDqqOc6fD+nGEYOjBzdt0kicorcRUo53Q4XMGvbde/bAu7Pfhddeew0ws1SvXr1g2LBXID29smRZSD521unF/s1uNPCP3a2ao9oy6uQZ53P+sS9e/B0sW7aUjK2ZYxGzdMbSYNPGjTBi5AjIzX0dOnfu4mMpCg47yYPQty9JPNW2bVuYO3cOVE7PsNIcJ4jfk8EzFqHjm6tlETvfByGcueqV7us3bIAhzz8PN910E1x11VW6/NNmkntfoqXPv5wRvc/wQeAeMTAwVOaq25IdPHb1rUY42LNzcmDc2HGCao7qc9UKczTpKRbgJSWlZIdp5EFYMF+3IBg8prJ2+96v6UPgWqlOA7BlyxYY9vIwePe9d+G334oBceOVnZ0Dw4e/ahVW8awSK32gkDNZ67K6IOGycwKwu5Z7VqC7SM3U2IMC7AP733//A2c3PRvWrV8npO/xxx0HP/38P6hRnS2MFDbdVS0ISruOJNPdS2lq+/eETXd/8BQCAAAgAElEQVT2/Ymfq2y5Z81qRc9VM/OlD34Pgu4HDhwgCvW0adNhwoQJBN/ESROhc6fOXNZLNnank6KeKElhbUo2djL2orlKwIn5kcsecfKMVwuCCLt5xKCSehWdrwZRPghEQZAkShIduTLkMv8waozajgAkc92Ofe++vVBUVAz79+2DIUOHwOxZs3UFIRuGDx8O6ZXTleZfMrCLFw2dCIpyzw/2kaPQSdE4YsiH9u06uNJJhWcYzToO7BMnToQePXq4rqmoMffq3UtJmU8kdrS09WUsCHOByaQYML8nk2eoutJJpzvjvKsTJZFyhqcgBMXvNpWa0jzkMhLLTqPFdNiwYfDFF1/AH3/8QWDVqFEdJk6cBJ06dXKZR3HKGd7jivxuKQgZMG9eoemkmMi5ynP4TiTPJGyu2ujuUBAyM52J2lTWVauao+uMIpqxoSAMtzspOjQklzdzqc9rTxV4IvqCAuNy+sbjhT59+mgKQo6lINA8y2p3qYPd/GobpERht2dSbN8BEyX5o3uQ2NF6cNttXaCwsBAeffRRUmqc4DKqHqYB1KxZE7p07gxVqlajhpPGLhhXvjTgOsSq0l1sQTB68Mrv4WFnBFggczW1sLP1LDQuJb+xg2sWmeNqyHpb64ihGBo1ahgXz6jQXRX7/n374aKLWsBll7WFekfUI8eq27dvh+rVa8CkiROhU2dDQbDGxiHCaWtIAPJdBbuRB8FKtUxFMThWVnfsrNGB5kHv8l0Fu1WuQLLqOuxMLsaFOOiO1nKsBYP1dAry8yHTzKQoqIvCYwBi+EB103aJPtEe5mjPg6BCGgVrkY2ErptGF7bRbo0ePRoefPBBTUHI1hQEXl78VMTO+3L+0qJkEJHu8NgjhnxoT+VBkNFHdt+xI+Lpo4KhnjdvHnTq3BmuvvJKmDJ1KhiCWZVvZdhk971i56dadrdaiTDIsMnue8XOHQKBEmW0PVyxG06KRcXF0IhTiyHYuerszY3u+/fuI87G23dsh5s7doT58+ZBjerVYeKkSXBrp07SFOrJwG45KbIWBG8rAN9bSmWe8Ncmb3R3ur97Qx8U3UV5ELzOVddESfbOHE6KtkRJwkEQ2Ls9E0MiqOihMJryFATNSZEdylTEzmctdYa1HYq56mbY66iRI6kjBj0PgmOFcZ9qXu+q0L179+4wadIk+PGnH+GMM850CDfXdyryDDbDSzzB1ekusiAkit+DxO6VZ4T0SgLdw8YuL9akzjOJwr5z5y6444474MMPP4Tq1auTeYRHDKnIM3m5Wh4ETL5HHzHwNgJBzdVE0V0kScKie052tmlBwGqOaEHwM1e9ZVLUfRCMIwZhJkVi/XUaZtyyMavuBr2aF/gKgpEe2rkEH9h/APbs20N2qVj2mJsIipr3hw4dgl27dhETd8WKFQFL/e7ctQsO7N9P/s7MzCT/dV2dpUqmov4bJ90xUdJAe6IkntYlxevjIQH23377DRo1ssIWTz/9NLjqqquhfft2cN5555Ga8RUqaPRVVxRUP8Af3YO0IMg/TPQt/rBz+VTSVarQPWzsalEMgvGJc66q8vvOnTtZBQF9EMwjBk9Sl5FhiZDv8WVSDIffUb7v3bcPDh44AJUqVYKqVaumpHz3akEQyRmPCkKpnijJSLXM5kFQFbthtlNVEDDyAbMHrl69Gv74/Q+oULECHH300dCyZUvoeMstkFmrFgU7BuvXb4Cvvv4a/vPFIti4YSO8Onw4MelNnjwZFi1aBJu3bIZqVavBueeeS87NcSFL9YtJtZxfAB2ID0LyLpyMd919NzlDs1+odDVv3hy63t4VuvfoTiZqqlxBRjGkyjdFOJwUKAuplu0KAh4xdHZ1UkzeSJthjma5ZzcfhPBxog/U559/DsXFxfDnX3+RaKnjjz8OOnfuDM2bX2BuVMJH5nyje7EmdYTuCoJNKbOXe9YsCLgb17McMksoz8hi69Cu9JG/9R85TbF75TMe/XlaQUCzi+GDoEHVGq1cuRI6duwImEzpzDPOhBqZNWHZkqWwZ88esuhfd9118E7+O1C9WnVA4d+5063w5VdfA04+tB4cddRRMH3adBgw4CFY8cMPgOFF9NWvXz948aWXIL0yHm0oXErKsNaIS0LHK9ToPpKkWqaiGNp3UDBF2l7mA7vxiP3RrVu2wJlnnQXbtm0TEg0tPNddcw28+fZkqE08da2mcnNeYrDbFYQ5c+dqRc1C4Hd37mJ5RkR3em6Y/UXYHaRVVxCSR3dNQbgTPvzwA/2IYSJ0MsIcA5yrQfAMKgg9sViTWc3RRUEIETsm2EPZOGTI81C5ciU488yzYNPmzbB61Sry2biRfObZZ+H+++5TEO4yU6fRRXw8gw75hpMiHjHUrp2prZ4e11UmDwKP5rQQidlqMagUa1IKt9NpIh5zkSiznhBhH8M4KWIehOF6oiTtpUuWLIEuXbrAjh07AJ1kOnT4Fzle+Oabr+HOO+6EX9asIe0MB0dUiNBK8Nlnn8GsWbNg37595H6VKlWJJzP21bRJU/jgww9h5swZsHfvXji2wbHw4QcfQLNmF1AMJMeOa53SPOCwpR+6O8s9G6mWxWqIjGeUFTqaMlQ8MSpbmzdvht9//x0WLPgc/u/DD4gGv2XrVvMJVBKee+456N+/P2Xu888z8dJdGuaozO/2gU09nnGynohjyx92u4IQ5lxVpbvjiEH3QWCXoXDljAi7M5OilQch0XKGxkS/C62YL730Ejz77LOkvMCUKVPIhnD//v3wwgsvwJAhQwCPmWvVqgX//fJLaHLWWY7ZnQzsahYE+VyVWhCMSDL8aq2ao1WLYYFrJkUFZUp5Rik3tF6qR8GxCoIe5miWqAa4t1s3eOvNN0m0AxLVmPT4xklvvAE9KK3ws88K4corryDvwDwLaIJH6wNeHf7VAYYOGQpnnnkm6WPdH+vg1k63wtdff00Wrfff/wDatbtBgShsBJ/aAx5bCcjpTJRE1WJQfQUVfaj6iJd2u3bugsXfLgbUijEBzN69e8jjxx13HPz73/8H55xzrnT5Fb4vIOzCIwZlNlZu6OB3PwqZEv2VISk3LPPY7WGOSnT02kiZnPyGqCDceccdZMNiRDGYeRAC4ne3+aRm8tWwi/IgcPsPCfuvv/5K8jFUqFABli5dCkceeaQJB2l78UUXwcoffyS/nXPOOUQ2kTw7blcI2LNzesO4cR5qMQjwOhUEYcRBDGKlMWKCNso9W8WaKObEf+LFmHoph0WlYjUGWltnzKaQMyE4fYt9EGLw3bdLoEXLFqR62PZ/dkBl4whAx75t61aoTzHEM888A08++SQBt23bVrjuuuvhu+++I39/u3gxXNC8uUnmgwcPwJ133gXTp08nv40e9RrkPPiAOL7ahe5mWmGzd87u2CfdaSoKMyn6oDtC5Sc4CQY70nfUa6/B4489TrR5vO677z5iBWIYMAnYD5Ucgr59+8FYM9XyXCt7p45OTBtq8iQBO4PLM08mC7tGqLCxW1EMWi0Gf/yeWOxMFEON6loeBE4mRfdkRCL5Hix2I4oBCwAWUomSLLFnL9Oo3Ukk9nbt2sFHH31EEp+NGDGCWkY1gfvww48QCwNe6LT4y+pfoNGJWLjLnuwvXOxMNceCfMjMrO3AbmJ0kTNpsdIYrt7CizG32DMpYrEmKiuhTNm17staivHQqoOsujO+xc2C0Lt3bxg/fjzpslZmJnWibxiZgSQYMS50mENrAwoGPBfXFIRvyW08qjj//PMZ4I888gi8+OKL5Dc0gT/++OM6Q8srU/MoxPxmm7NuO0dVurvXYjAmY+pgR8XgoYcegrFjxxJwJ510EqxZs8Y9T4KE9YKgu9MHYQ636qmcy20tQsDOzC+LWz1DdTxQDrG7+SAkeq6qDojqEQPdX7KwO6IYWrWWZHJ13g4S++YtW+Doo44ySYMRaeaVpsnB7Tt2gJFKCC3FXyxaBBddfLH0zCYIOeM2V9WOGARcRIGzWRCcsOlfnNUc0UlRL/dMFCqnloTEsxLb0L0Z2ic9yC5SRKpT8LHzFQQtDwKahFasWAFNmjQhC7jswnC7c9GEnRaDbdv+JM6LhgVhyZLv4PzzmzFdPPXkk/Cs3i+tIDjf40539q6tbYB0xzwIA+3VHH3SnV+eI3jsmzZthCZNmsKff/5JyLpp0yZyRqi2tiWG7nhuaU+1bOTecB1LoZTmcWZisCdzrobFM67S2wO/mwpCcRE00iuIhjVXubKKg51REIgFgU217JTIzmXHnEsJlu95E/IgKyuLWHQLC+eZqZZFkznR2L/66ivid4DXgIceglat3aMqkB/atGkDdevWlWr2icauXItBwu+MgkDaujxgj2KYP3++tjPilE5AClkZkql0puYN8XJsQhBgEWpfnBtsFEMOCUesnF4Z9u7ZA/Xr1yeRCo1ObARFvxZZ80ABu2ZBsBSE75YsgWbnn285FcYAnnj6SXj+WU3xMBQEL9jtFCK6gDFGHDqa93VdDQfTTCOrQHem3HN+AWiplq0rbOym160Ee5fOXWD6DO0o5/vlK+Dsc5o6mCtM7CWl2hGDVc3RecTApWsA/B4Ez6jS3WQz5h8sgkDoLuifx+9hYndLlOTE5qSLXUYmAru3PAgaxmRhd8uDIFubDOoGiR2d0e+++27S9csvD4OBAwcw8p1neU8VfmcsCAX5UDuzti/sAidFvqTSnBQHmz4IzlTLnORIDlHtIk24bb3+yGIX+SDs3r2bOJyggoAXpiStVZPOdSB6r9a/SEGgn3ryqSfhOZuC4P410u2LgJrB0F3liEGMP3nYBwwYQHgSQ1Ix4gE9ir1dwWIPNw9CsNiddPPXvxr9/fXtuXiPGhiPrdAyWoE8gw7LGMGkcoWNnX/EcKuXgHHzsxKNXS1RUng8M/mdd+Duu+4i33/33ffAW2+9qTLELm3Cw65sQZB8kTxREvVNDgvCggVafDfFQm7FTRgsugOUCsmMNipt2XcAjB7jrMVAcjfEABqf0RhW6bGso0aNMms22PswNMWFCxfCKaecAg2OPRa2/Wk/YnD6IKBDo3F0gUcNT+g+CEpc5uljvWw9tWMg3hN2BaFd+/bk0z1BwY/z9ED82O+66y5455134PIrroB5hYWEvPHwjJrntfhD+ZkUKwvpbueHZGLnjl1IczVeugeFXWl+4hKrlwL0oiAIJwd36ymeqyKesf++S8+kiFEMmGrZkSgp5LnKo60BIVfPg6BWrCnxcuaLRV/AJZdeQiDXqVMH1qxdC3Xr1BEtDySiauHCRdC2bVsrA6+ImRJMdxUFQQVCWmkshpGM1BqPTIl/OmsVxEpKtSiG4XomRQxzNHwQ2E7EGqqXKAbGXmSjNC9UhPTNYnfLpNi9W3eY9OYk0jFm4lv1889w/AnHO789hhEP38KNN94IM2fOhItbtXJYEBxOijGAp558Cp59/lnSP+ODIAxzcQ6ZcBC5tHEZcgW686s5KtCdWZKl6qLNhmm094cd8ySgLwlmwBwxYiQ8+MADWoc8r82Q6O7bguCV35NId4fcOwyxmxYE3QchzLlq0l9C9527rFTLJMzRrOaoWotGf1MI8t20IOiJkvDM3zmNw5ORf/yxDk48sRFJjocXJrzDEtokdb6N7pgPB6OoMO/Nm2++CTVq1kwqdlcnRSHPaAKSTm0gtyBQkoBYEAbzwhxVde7w27kpCF9/8zW0vawtSXaEca63d72d5DI4/nhUErQLmWPe/Pkkw9eFF15IJhhq4vYjBl4Uw6OPPQYvDB3qVBDCJ4PSG52JkpKbannP7j2wfsN6or1jqmpHFcdYDMaPfx16Z/cmzkGYuIqOU1b66AQ08q0gJABL1GXiKMBzUkzc2/z1LIti8NdrYp6yKwiYfyCZV2lJCdxy663w3nvvERhYbwdlJBa/0jIIa9c///wDr7zyKrzwwlAig2666aZkwibvjiuKgULPiWIw7jrTMpaUluqJkoxaDJQFwU4SV3WaMlxL27EdW83tDxpqEbbXsOOZ2fDhI0gKZLx69OgBY8aMhoyMKuRvjLDo2rUrTJ06lfyNcayY6CgnJwdatLgQDhw8CFOnTCUa4f6DB2HZkiVw2mmnEdsW1mLAGNnly5eTZ9HjFes2aJeGrXev3jD+dS2MEusxPD9kiK5V8rCLaSL+Zg4fSumpb6N1MtE9uPkguNM9eOwo2DAzIsYg16pVEx58sA/07t2LaLjkStNo3qXLbbBnz26YOnUKXHHFFea5MP1dYWPnKwiVGezOkeMPXNjY+bNNzDM0v4tFQGrye7zYLR8EPYqBEZkKBtw45qoq9u3bd5A08lgyHa2kGClwR9eubNpdHUdYckaEnfVBKITWrdtQLGWgs4FNMPbi34qhaZMmsGv3boIFN4edO3eCjh1vgRNPOpE4t2Mo++LFi6Fbt25EgXBWCw4fO1EQxo+DG264gSSVq13byIPgTc645kGwd4VOioMGDYbhr2oKgpUoSVsUTVc5xpSrMFEYyeKhvaApLvx79u6FLZs3E+Xg3Xc1DfDiiy+CCRPegIYNG0LVatUA67l//fVX0L17D/jpp584q612ztjg2AYwa/YsaNGiBWmDDo7zFyyArKz7SaEmvIYMHQI9uneHOnWwKFMMMAPX/fffTwo34XXppZfCtGnTyE6YJGRy+UxVI5oRQmq2j5PuI0e+BoP0ao75BfnQoX0HLk3CwL5x4yaiiX/zzTcmBrQSPPbYYyT6BEs/P/vMs4SWeJSDFeocFgYeeg/sJRokGd1LSnhhjqLsah4AeWjqF7uHaifeDoHLIXa+BUEggPVw76DmqvAMTd+CoKkb5dQPK1ZAl9u6wJYtWmryPn36wMMPP0x2w+jUy1SaFUxsGb8HwzMxyMubQMIczVoMkjwIfGXW9mucdEdlf+jQoUQJMBza7WIFU71jVl3M7IqWaHIlkd/x1fZyz2YtBodM5AClfvJ2xGCrxUDCHDP0PAj8pcT2qycdlaM9qhH+77//hhdffAnmz58Hy5YtM8+QcDKcfc450LJFCzJJTjjhBGJFwOOBhx95mDiYHDp4kMF86623kph2tA4Yg3/3XXfDf/77H6IEGBdOuItbXQyPPfoY/LHuDxgxfASxLmCebuO65JJLiBXjzjvvVKJWcI3U6O6aatkTw8ePHJMgvYaZEh9/nCl+hUKtRo0aUP+I+tCp861w773diMLnvCjAIWPnWRAqp6er++DR0iVk7HHrVIcRdjPMsagYGipGMXiZGd6G3mpdcqgEXh72MixYsIDkecHIHuOqUbMGNDu/GTlGxTN1e3I3L/jc2vrBbmVSTIfCefY8CEEhk/djx44F+TBBHmZMXLd+PdNB/fpHwIABAwEdpY8+6mhvupIciucWBvbs3r1h3Hgt1TJWw800LQh0l3IZSSkIdluNc1GxJ0rCXbQVxaDIEqSZeMES9+LWP4s9FiuFvXv3mYoBUeiMHE4xIKWc0dxmansQg/37D8Bff/8F33yzGH766Udo2rQpXNDsArLjN01GOvZdu3YTxcKJKA2qVMkATJTDVnS0WuLZFatUyelOY3euMsHRHRMlWdUcC6B9e/RBUKc73dZ4Kh7sqFyhrwea737//TfAnfl5551HKjxWr1aNnAOi0hcEzwSJXVMQ+sCYMWOJR/PcuVYeBDvWVMPOSKQQ5mqQdA8bO50H4YSGDbWIH0rOJHKu8jOnWtyEFgR6c2KfxxiAgQXm8Fg1iLlq0j4OnnFYEEwfBPGsCQs7ynS0IPxWXAwLFi4kQ4s+aY0bN4bq1au5lHpODnZ7FAMqCDKe4W2yuBYEvtCKkYVPq8UwnBwxoIZKO2toz9H/700BUlzqtE4FjUXYZapdhB2ASZRUYCgItjE8bOgu510Rz6g6KcbD76Zg9BXRbkyf5MzVMoVdwP74DXhEiReWiccsqypXqHLGBbufol7xYZdnUXBWc7ScFJPLM55mqoMNkoE9QCfFUiM2UMrfxIKAiZLMMEddQeDnSJX256cBG62nPnBWS+oZ+nH1rvzA1nQaJhO1+gvDwu6mIKQ6dldzZwB0p/1rTFVcMISqCoIKIwVBdy/YVTCptimX2Kkx59VioOdqytFdInKSjd2ZKMkq9yw70082dlf5ngS6q+RBYA4bBDLSYUGw9DznV9nDHOlMinYtiX3aPny4g3HWKLQLHvv6jff5KX4Mo4LRK2dEbD/xdAO+pnf4YOfVYsCvj+juNFq58XuJXs2RTrWs4oMQ8bvObGVkrlo+CEXQ0LAglBHsXBOsy0IWhnxHBQHDydMzMkjCM3uYo9vapOI4XVbkO7Nw6xZCr9izc7Jh3FgtisHug+BFzpgKgkl8hklYjnEUa5q/gHicerr0LrX/MH+Iu5FqYLpi4ILdKeI9oWYeL6/YWSfFfGjfroPsZIZDVt5gSQZQNhQJ4BnzlQngGbGTYjD8nkjszFCUMbqHjV2cSfHw4veg6C5NtZyAuRoUdpkIYxWYxMvI3tk5MH4cL8yRQqrAps5iTS5uaZqCYNViYMMc3dzZOEh4g01+Y5ZfB91F38TXsPjD5m14Dh/sI0aOInkuMFKgoCAf2lNhjhHdnVVHRTThp1pOpzqgV96w+d39ffKdZYTdyPph+SDwazGw/BHRXVskxXSQFmtSC2KzGRMOT7rTPgiaBQFLVYvt7yJZZikIdAtB7vVSEuZIOynOh/TKVDVHsw+rMzclheIXqQLm2KoyeClPLVneeOFzTAlH8rrDDfuokaNgoJ4HoYCp5khRIiF0x061g4yyR3cndszA1rdPXxgzdgwTxZB6/J5idLdPONe5mnzsaXrMe3FxMTQ8oSFrbUtx7Ew9lhShe15uLmT17EnS95Mjhja6k6Lb2pQi2JnqL3Su4iRhz+ktSpTEW2oNkLZc9OiXEMN4PcWLqyAYtRgU+4iapS4F4qvmmLrfFTayIJ0Uw8YevU+dAmUh1bL61yS/pZEHASPjMPNjslMtJ58i/hFke1IQxO9hLAim4iMo7IM7o0HUEcMCwwfBVOZp86P/j+OdCxnmKeJtYC+6Q/8tKkrEQLPtiMnmNcLO1GLILyDZwcok3Q0G0rfsYfMMURA4FgRPMyJJ2D1hFDUOBTua+NLUfGS8fJQH7IYFgQlzVJIzyceOFgTH5YadNNcFfYLonjchF7Ky0IJgUxDile8hYMf1IyFyxid25TBHCb97siBgoprBVLEmex4E7jy0mYCsP+NckO2mJS9CQLXtYYadF8UgEiKqJPTVrozTHVOSY/ZNOoqBTbblgyoRv7sTLQk8wwtz9DGyjrPMw1VGhl6sKQk844s/eA9JsPu2INj6lSoIdHu3MEevH+5N3nlrzWwgvQJTaO8NjbfWycTuiGIgmRS9p1Tx98Vywnvr11vrIOkeaKplOVnMFv6+WP4Cb/16ax0k3RXkqORjvWEPTEEQoPKGxlvrVKR7bl4u9ORZEAKhj5zP/dEkNemuZkGQY2cVBKa93Y4P4PRBYDMpMkPA7cv4kbYeyEHS/dp6sG4JsXvrn3RYnrBrCWDZaFryp5MuKtUcHU8lku4esLtN/7B5xp4HYc7cOZCBvjoCuqcSdgevMKHI3uZS2HQPGztbi+EE78q0fe6UUX4Piu5WFEMGFM4rhDZ0ueeA5Yx1SmLn0tRfm1SwZ+f0hnHjtFoMbDVHvrQRzVVlCwIe7R86dBD69e8HY8eMJaFwDRo0wHKHWopA+sKjQVJu2bq0fSiGWTjbsj8ZCxpPLdB/M5tYbe1P4d+laZiMyShVq72XgRsYdvsiXDaxb//nH/jzrz8JkY468iioXr0qK/Qiuivz+59//knqxGMFyo8//pgUmFJSdJ0aqvLWx5zkPjNHqr6IK0xMAe5NibDv2tin/fXlWeHyid1QEE465ZRA5IwmIVkZSaacY96lnowMAvuOnTth65YtZPhwbcFaEcYqkkj5HgR2k+dClpEi7H/98w/89eefpMjgrFmz4NgGDSxbsAd+dy33bN9MHzx4EPr360/Ct6IrokBEATkFRAqC/ElOC8l6ybvN3aQqxJMHvjSXQ+xK5cV9DXT0UESBYChgKAhkM696UXPVWc2R2cGws/rggYPQv38/GDN2LKknfnrjxkQrMRxiS0mEAbVTJ4JItx1gXW5TO04jWnEF0taIfdeeI+YT3cgQS0uDCmhzMK0+aeQZ/NO4h+/Et1TQ1exS8rz2m91qYbwNcZTq9yPsFt03b9gE69avAxR8J518EtSpXYcMD1KyLNHd4MFkYv/j999h86ZNNguC2ypJ7cvtXuKOyBy6H4FxkPMq7SfbDVHUj0OYRNjZs8cYpKVVIFRqfsEF5N+GdVQoZ2KGVVMrzEIMmEIZqcs4BRkZBr8jDJS5mlO9O3YiUVB2e8S+Zes2+K2oiMif0xo3hsyaNSAI+R4G9kTJSL/YN27YCH+sX2daECwFwZucsR0xOIUA/Ys9k+KC+fNJ3mzz4gkb0RbGa9VH6ZbGHbtUeYqww8iRI2DQoMF6JkW9mmOcdJc/ztjDtWFKEZ7xi90tikHap8Go0obu/C5/vPzRnWNDNZlJSg8fdOflQZC+J4XlTLKx503IgyysxcDNg1AG+d2EHD52plhTQT7UzqzNXwJFg67/nlYai5H9NiuZ+U9peRBsmRSpREmuxTQYeFb/9Ju4Oxzhym4vH0ppRjLPe87nRdhjMHLkKJIpU0u1LCj3TPZJdKGtiO72ODVnFMMckh3OrvuUNX6np2KE3bIgFBXxUy3zUrH6kTOpR3fZdou/fsh4xp5quVXr1pQkp+UMMVGIQbjK98RgZ3t1k5HhYHdWc9RSLcsvFntaLKaXe5aqjwAlpaVkARn+6qtw8cUXA12LQbjpE5x3KryOr1LwXuS1MxuVIuwaQXhRDHwlWP81ojvH4gFwqKQE+tkSJalUc3QuBAJrSkR3Lt15ZPFKKobfTVnO53dxsSaFzZoNWNjY5f7C7JsAACAASURBVAuFfclzlhJxM7r4ofuEPM2CkJGeDoUkk6Je7tlrZ8mU7xKeCYvuzloMfAuCjN+lUQz0B5E8CFiLYbimIJiZFL1+ddQ+JSnAKAhMLYaUhJuyoKJUyyk7NIECS3QehEDBloHOco1yz1Gq5bhHy2lBEBwxSN4ktCDwDgFEiZKwrak44T8kGp/jtrC93VRj/xq+Zs/DLsKUSOzuxYdSDzuTarmgADq0by8gW+phtziDO/oU4yQeu1RBcOH3VOMZh/yIsJsk4dZiENBHXeYJJHaS6c4Yp73u6BWxGxaE9Ix0mFcotiB4le9hYHca74ORM36xuydKUpeRrA+C68DHoKQkRsoBGxaE+QsWEHOQdtEPK9jPnCJbXRZx3uiulMg4OsKOJFUt1sRQU8Iz7udeZZnuNLuyRJApCCKSsb87WwVHdzF2z8o9by5yOimP2J0WBJmciegupkAM8vImME6KjA9CXHLm8KO7m4LgRc54OmJA7+zBgwbDq7oPwoIF803nq7htImYHXiZZqr21bGOnnRTzC/KhQ/sOwRHY68bI05tTi+4yBYH9tNTC7onsMm3CW2fKrYOhWPy9+DliiP+tCiZaZUp6a5ho7HYnxSCrOSYauzdKemvtB7uzFoOqkyKLjZNqWQxHS7VsKQjz58+HDCPMUfCY+bPzH1wqMXtKOhJLRiVyX9ZIt3VgMyp/g9vxA2s6cu+/rGMfRaIYBnoLczyM6M4UwHPhd4z2Ua3mGBbPqGJPRX5PPeyG/NCoVVxcDA0bNnTIM9f0FVRria3I2S/lj868Qyb+ZPdpTPYoWJl8V9zgufE7URB6ZkFGRjoUkiOG1haiFMfuGiCQBOx2J8VatWubEL3wjDcLQkmJXs1xuCOKwcWIw50Klr7Aicd2mxLKjOpNSzNai8fSuhMU9r///ptEgmzetBmuvfZaOOmkk/yB1p/yhJ3zplEjR8BAJg9CO0sUpQDd/9m+HXZs386l0f79++H//v1vkrQGsxcyR14hYw+0WFOCsYsZjsPvStxJAS7n2NlaDE4FQYlcLrLOw7rC5fft27fDunXr4K+//gKcH3Xr1YX6R9QnaYwrVNCSPAV7xcczbk6K3mjh56vk2EtLS2Hr1i3w2+9/wPfLl5N8DV273g6VKlXWXphC/N67d28YP15Wi0E+V7kKgmgwtERJdB4EtlgTox0qRl2qKRbqA+6XkcLGHovFYNy4cfBQ/4fg4KGD0PX2rjDprTehUsWK6h/LUQz8fL/xzIiRI4mPiXseBD48P++1zym3PpBe9913H6xYsYILYO/evfDzzz/D8u+Xw1lnnuWJhkFjVz1i8PveIOZM2PzOGxC/358q2Cvopo3i4iJo2LCREs+FgR3nyrx588gCgfNly5YtsHfPXjjq6KPg2GOPhRtvugkeyMlx1AeRfUCisefl5UKWpJpjMnjmwIED8NHHH8PHH30Eq1atgtW/rCabuk6dOsHkyZMtK7qEgGFiDzCKAdmJ50qGv+JlGR0d1RztmRQZArlpZEZ0gt5GSDneDRUyO7E71TvX5YhKAW2nTTDYURsdPHgwvPLKK4RqV199NXz00UdQqZKhINDGXjvWxGB3d1JMLt2///57OPfcc12n4K0db4UZs6ZzuDlc7CQPQt++MGbMGGjbti3MnTsHKqdnWGmOD0N+Fw9c6s9VEXa+D0I4c9XC5GSmTz/9BK655lrXuXLV1VfBjOkzoHZtOvwtudgNHwTuEYNjbWHXJmnoXBxr0/4D++GFF4fCls3bYPbsWUThwqtTp84wefLblIIQlJxxGzq1dTU7JwfGjR0nqOaovq5yLAjijywpKWWiGEgeBIxiMNYyFfrE6djknjpeDIBLVs8qsdIHCkfXjn3RF4vguWefA6z816t3L+jRvQfJQ26/9u8/AGvXroFTTz0FKlfWo0YSgN213LPrSVBi6X7g4AEYNHAwjBo1Es466yxi4bBflStXhtGvjYYLml/guMfSXV0I+uUZVQuCbMeG9+PHTr0lATzjKspcq0qq8ExqY7eOGIqgYSPNgsD9qpDojlu9BQsWkEUB5fJFF11EaqpUq1oV1qxZS44zd+7YSXDiby+/PAyyc7JNIicTO4JwOinqiZLcEYZGd6QvyiD0w8PChXYLQirNVa8WBBF2U0GQZRzAUXCkWkYFIcMIc+SLCtGCbjAj+a/JmXqNaPsiKVmXVbBr6PSOFNf5RGNHKwIx/+3dS84FibLFuf7v//4P3nrzLXhj4htmASXZ4uIH+8hRdKrlfGjfroMkoymbdFmMKT66r169Gm6++Wb46++/Aet/mI6x1AsrVaoExxxzDFQ0jmiSyDNoaevLWBDmApNJsazwO2/YIuwm1/EUhEDkjE+6b9+xHe644w6YO3cujB03Fm695VaoU6cOgbRz105ioRw4YACsW7ee/Hb22WcDWubYy/XljikucsRkpp8iz1gKQgbMm1doOinGJ99dFFGBI6Yb9hkzZ0L37t1h165dmoLw9mTIqELVI3JQMx4Z6R+7Q0HIzLSqKhoYVWRkTDthsC4+dcjSaigIw1+1OSmyq7x7piRu/zykOlvQzKWV5xMvWi7Y7QEObLeKKn7o2GOwZu1aOLfpuXBes/Pggw8+gLp161okCJju/EyKCot7gumel5sLWT17QsGUKXD7bV10BkhdnhFbEAzMqYtdLgu8YpdIIdv+z8HStDQJmN+NxZyIcK6cccduT7WcbOxLly6BW27pRJSAXr17OgTloUOH4NFHHiV5bHBzgteu3bugerXqmkyxfW6QMtK5TDrrFRh5EKxUy1QUg1M1YY+BRUMVAM/Q2GfOnAndunWzFATig4AbO2Ntip/fzU+NA3t2dg7xcUNrUkF+PmSaR0mCOhE8BiA8YVcQXJZ3e5hjYvIgMDq4bKPswjbS/aznvtmBS2D/ete//roW7r7nXvjPF19A61atiYJQp15dpZIbQnQu/MseMeRD+4DzIKhMHTvuffv2wYUXXgg//PADPPbYY3DKKafAaaedBo0bNybKklC39T+63Cf5yyJfV+UqCHg05K2+TGBf4AW78seL9hSBoRbLAU98JGnsqS/bt1mZFIuhES/M0ac3jCoJ7djRyQ+LrM1f8DlUFEQpfPvtt3D55ZeTBQ6vJUuXwvnnnackR+Ohlf0FvL4sJ0XWgqBKD6Nd3Pzu8kK+guAsxOYVsxt2P3058yBoviauehTnRcIwR+wIL1qmOZwUbYmSRC/fuWMHLF22FH5c+SOg3nrmGWfAZZddBmkVKjhkptHHsuXLYOmSpbBm9Wo4FCuFi1peBM2bN4fjjz9eR+Z824GDB2HRwoXk/hVXXkksHosWLYJvvvmGUKbNJW2gefMLdFM+P+J7/fr18MUX/4FfflkF27b9CeecfTY0v7A5nHVWExIaZLyV962lsRhs3rQJliz5Dn79tYh4CZ951plkgasAFYTVTvCZbxYvhnbt2hGa4LVj+z9w2223w6effQolh0rg/Gbnw+vjX4fMzFokrKZRo0awdetWcydAj221atWgVq1MzSkuLQ127NgBu3fvNpvgd+Diiuf2NGOOGonna5woBuZjxWKCxzMszzmfFfam2y7feecduOuuu8xu0P8gMzMTjqhfH7rdey/cd18PqFGzlnjtTQJ2kQXBs+BKAnab0wPDH3b9xnXBOAywm0cMgjwIPHEs43eVhVTUx+cLP4dKFStR+QOcLTdv3kyU63/++Ye8auOmTXD0UUdxlgbBXOUyMd9BySu/5+bmQc+eWO7ZXUHwLWcCwD6La0HIcClR75SA9nVVSUZ6xJ6TnW1aEPJ1C4Jwf+IyVz3nQcByz8YRg9CCEAMohVJY98c6eOKJJ2Dq1Klw1FFHkbNjjMnF+P+TTjwJhg9/Fa67/nrm7H3dH3/AM08/A29NfpuE5BxR/wjYt3cf/Pbbb2SRe+utt6Bz586moxr29euvv8K///0RTJz4Bvzxxx/Q9Y6ucH+P+6Bv/36wbOkyhv4tW7SAN998E0497TTrvBoAcKeKZ2DPPvsMpKVVgCOPPJIoBDihcCHu0aMHvPzyS1CnTl3HvEfT3c+rfoacXjmwZNkSqFevHnE2xGfRvwAjFF588QU477zzybP7DuyDLZu3wMqVK2HatGmAi2DTpk1hyZIlZNHevWs3XHrZpbDihxXEGUZb59MInfC/2D+G27Rq3Qp+/t/PJMbZuJDOV155JYwePdo8f3z5pZfhtdGvwYYNGwANRuecew5MnTIVzjjjDIY2mChpoD1REt3C1xZC8SF0P0ljDZH79u2Hs5s2gV/WrBEq0eeddx68MXEiUeQqVKyoqCgIu7Pd8Ic9cAuCIgyZoOF+NYfupB39Tsn71RWFxNKdq80kELtaFIPgm5NEd5Sj55xzDmCOhGOOPgY2bNxAAVRktARhjy+TYjjY3SwIjnmjyu6qjvse6O7VgiDC7lFBwNA8zIOgV3NcwOZBoOnx3//+Bx4aMAC+X74CBg0eCB1v7kgWNnSgwfA+9NzHRfiNN96A9u3bk0dRAfjXv/5FYnjRW33mrFlw6smnkDwBQ4YOhVeGDSMLZG5uLtx5551ksZs+bTo8/sTjREkwLtxd44KPO+ljj20AvxathQ3rrYnQpEkTEr+Ki4txPfnEE/DSsJfJBmrunDnQsmVLsiCjY0+vXr1g48aN5L8YllitWlXTtoILOC7wTz/9NJSUHIKnn3kGLrv0MrJYocl+zOjR5BVnnNEY/v3RR0QxmjKlAGbOmAlff/0NbNq8idxv0rQpLNUVBDT/4f2VP62EvNw8Yg48/fTTIScnB6pXr06Uo1tvvRU2btgATz39NFF4jAsZ+NrrroPq1aqZERG4YH388cdkJ14SK4FP534KF1xwAaBjH30xxZryC6BDB21cknUhP6DQwF3O1i1biMKEViX7dcIJDaGgIJ/NvJYs0ADAtyCgtUalHnsSgQtfrSh8UxG6qvD1gd1PqmUfrwn0Ecx+i/J2z5490LVrV8DdZapcZpijWe7ZzQchOailCkJyYDneKlIQvMJzVxBscsFR7pkcMWgOGkZT/C8eKZzeuDFs2rgRJr/zDtzWpYu+GMVgx46dZHH79NNPCVaaSadNnQa33X4b+f2mm26Cd9991/wePCbA59BC0LlLZ6JY1KhegygCuJBggp+JkyaZ7TEB0aOPPUp25Hv37YUnn3iSKBZ44cTu268fDHv5JahYsRIUFRWRBRgX++pVq8POPbtMUY4WD8SIig22QUxnnnmmucNa9fPP0KJlS6KRf/PN13DBBc2hQpp2nPD777+TowDDzeP5558n5+i44GPyjQ8//BAwJSZOVtqCYBDzs88+g9tvvx22bdtGzg0xBrd2bc0r2QCA76DTvKIi9egjj9j4IAbvvvseod8zzzwDjz/2GOvRSgYvBnQtBlxw0QdBbs5zvEphHdS4heYZXDr5VjQsElZC/odj/cvqX+CFF19geAPHs0OHDpD/Tj7UqFnDBJQs7HYFYc7cuVpRM/sH6nS3HJwsWiYLO4uAUmgi7A7Zqp5JUZ3fHUwSIN3RPe2VYa/Ao48+So7pphRMgauvuVqyZoSHHRWEnllZJDJOq+booiAo6azBY585c5bDSTFdLzegrP6HgB3DVw0nRVQCa9fWazHY3i2TM1a5Z5GApnzGY7ZaDLwjBlz40EKAu1FMefvee+8RywF9jR0zFvo/1J8snA888ACxSOCVn18Ad955B/n3jTfeSJ41FsOVK38koW6//PILtG17GUyfPgPq1z/C3JWNGTuWZAfD68qrMAnIdKhdpw5Z6JEIe/fsgQcffJDsttGDt269erDml1+IGX7t2rXQ+PTGcKjkENSsWZMs9jj50Zqwe/cuuPfee2HWrFnkmAQ1yNZt2pB+aYvHfffdD+hkY7/uvvNOmDJtGlFU0JrQrXt385u++WYxXHfddeTIhVEQdMyFlIJwxRVXEAxsYhOtq8cefxyGDhlC/o2hfnhUcfTRx6D7gXlhaA5iLyouhnoC5z5nuWcq1TLzYRaXcRd1lzgDiTTSVB9BzgVLoYhB4WeF8PAjD8PyZctNPwxMWnLnnYa/gmgWJh67NMzR5ACRLpU87Jw0HHzFTWgPOXyw2y0ISnKfMwFk/E4/In6HnO5//LEObrmlIyxevBi6dOkCEyZMgOo1apgyUnmBowAFid2ZSdHKg+AmZ1RkCq+NH+y0BaFzp87w9uS3ICPDmZeFVvSSgd293LNBDTnPSC0IsTRLiGnVHKlUy5xMihhXi4s7FjDBhBIvvDDUkfcbneb+/fFHsHvHLrjm2mvghBNOIIjRcQbT/f5WXEzKfmKiD0NBWLz4W+jcuQtgWlN0+nvv/ffh2GOOMcfdME/hD+ijgNYIGjv+/p///IfsNHFBxuurr78G9ElAhWFC3gT475f/hdatW8H992eZ/aIFAU3zeNSAWveMGTOITwFKzRmzZgAyCV7//e9/SX0K+7Vt61b44P/+D6pXrQo3tG8PNWtYO9zvliyBa66+mvhl0EcM2DdiZxWEK2HWLMx8ZlgQrDehrwM6cKJ1Bf08ho8YDr169jKPGP75ZzucfPJJcM2118KUggKhK6szUZJIQXCZkjp2YX10v7PZxtOoXH7//Qq455574Pvvl5O76HuBVheDZxRMGSyagLALwxyVVxDlhhZ+IfZ4Ce6VnGUDOx+lN+z2MMeAKO3gSfvJlF/sI4YPB/QhO6PxmfDu++/BKSed7JCRgX4DB6gbdlEeBC6mJPA7Ync6KWImRZ6C4EdGBkT9GEB2Tm8YN86qxYBhjn5kMlEQmMhIgVqFbWKlMeLlbvggYGaujHQM8bCG/b1334O777mbOM6NHDkCevXqjU9ipLEut+XFmRCRNvliUFz8GwwfPpykrTVM9c2aNYMPP/yA+BcYV96EPMjSF3bUjtEx0lpTtPfjEcKpp55KHB7xmjRxEtzb7R4rnhbfizjTAHbs2E6SYKDJftMmzU+gVs1aREFApQYvtH4grvr168OXX35JQvAYiU3+ML6b3lZr9PpuyXdwzdXXEAWhaZMmJOSIjiygjxhYC4K1l8Z+UMF5ePDDMOyVYeSN7dq3I+b2Wpno3Z8GuXmvQ07vB+DtyZPhdv0Ix04b/FuYSZF5HW/Wi7yYeUlCWOwEB8fOpcIz2OaTOXOJo6txocNoxYoYCSKmOzMNXfjd5FmKk7R+KRpwsKMlqm/ffjDWTLU815EEi5/8xdZZqHTXXqZKdz5t3Pk9cXRPDnYrikGrxSAeUzeeCQf7qtWr4YzGjeHoo4+Gr7/6Ck6whWWmAnb0tyLVHNMzoJBKlGRNPy9yxpJwjCwwWdQf3YU+CIHO1fixM9UcC/IhM9OeUlttrkqdFOnlwJFJEZ0UqfhuLRXlKOjXrx9UrVqVaDD33HO3Q7zK8majJQF3+1OmTCHMfFaTJtC48RnwzjuTSWQAKggffPghNDjmWHPsaQuCoSDwtNVLL72UhD7i9fRTT8NTTz9lrlEH9u8nmcVmvzsbUNFBJ8pL2lxCUpSiD0StWjVh+vTpcO211xFl48orr4JFixYSH4DPP/+c+BsoXzEgRwF4BkgUBCqKwVgzaQvCVXhsMoPKnW5bo75YtIhYTlCZQd+MuZ/MhVatWpEoihYtWhIHynffexdOP+10IUT3Wgw23cdjTD8zFjbsbqZNqyl/74HKEfLD8uWaFQEF4WmnnioeBskmkXfbK3anD8IcXZFW5g5+wxCwO0WTt1218AvLIXY3J0WvPJNIuv+y5hfNqXnjRhg//nW46aZ/kUgtQ864Hi34mqv++NwRxdCqdXy5QxKAXdlJ0Qe/swq0tJAuZ121elA7YhCME4XdpiA4v4r+xVnNEZ0U9TSTGNpYWgKPP/kEvDD0BXKs8Nxzz8IjjzxqWgM0OGzhBvaNMSgqKoaBAweS+P8j6h1BrAdoOsaQyZtuvolU7GvW7ALdgnCs+YUT8vLg/iztaKBLl84wFY8YHG8DuLVTJ2ImwgvD47p360b0FYyUeOqpp4hXL0ZYYFTDnXfdRc788fwewxFr1qpFfBuuvfYa+POvv+C6a68DTDyCGu+SpUtI5AX3EjDLd999B9dco1sQOAoCWhC66k6KloKgO5vQEgVisGffXujSuQtgWma8bu7YEWbPmgX/+c8XRKFB/42JEydC5coYuWA5CGrdaACd5Z7by3Q5rucKj+70exjO1nM10HSzLEh2EWZo/bTciIGRNQxb//ZbMWBUg2fppwMIAjsqLfZUy+npWhSDnd+FElC6LrvPVdf34M0A6H64Y7cSJRVBI72aY6rRfefOndC9R3d4d/a78M7kd+CWW29x5D/hl9Kx8VcIPEOswFlZJDNhocNJMTX4nfVB6ESsssSKrqplBShnrLo9TqmlXItBImcYBYG0dXnAHsWAITM0cVCwDxs2jDgp4oWOe6Nfew0yqqRrhwyEyVjvpoOHDkFlPdxu69Zt0LpVK1JOE/MffD5/IZzV5EzyCCoGGNmgKQhoQfgAGjBHDBMg6/77dQWBPWKgF58WLVvA4m8Wk58wrPC8888HNEtjDnO0DmDo38RJE+EudHaLAezZuxu6d+9BFIRatWrpFoRrzfwGaOnAC5/F3Nwm+Th0RAdOOif/ku++g6sNBaFJU6JkiI4Y0O9h+owZxA+CR0fE8Nm8QuLTgEdBeOGuesrUaTDs5Zdhzscfm0cjND3ofzPlnvMLoL0tzJHHGjKeMfo3h57DA4YaYLIG3amgPY17wEMDSPpYNJ9u3LCRO1kDwW7XV6jJTmMvKdWOGKxqjs4jBhq/G88IXslNjcsbV4Z8HCI47+uNFOjOYBPIjTDpbgqvkLC7JUpKBbofOniQyOKxY8fCxImTSH4YN/numKuK/B4U3d3yIHiWMwnCTmoxGKmWO+u1GPQohlSaq4wFoSAfamfWdl2bRNgFRwz82a45KQ6m8iBQFgTCXTEoyC8gSYX27d9PfAQ++fQTaOLYWWv9b92yFV4bMxr69ekDtTIzyU4d8xPghUmPunUzPP6dCoLdB2HChDzTubBzly4wjfJBMBgfwwkxixg686Fl4PfffiNWAUxPigoCXh073gyzZs02ZS0+Y1gQ0Adh+gy0IFxLlIfb7+gKU6dMIW0xtwLmfsAMhrwLEymNH/c6DBnyvFmHnRwx6E6KTZs20RMlWQWbaB8EbIdHDKgg2C/j/BCPETCC4/MFn5Mm+AxGWqBp8ccfV+rJpcSqrvIRA/cLJaoo9xkko8diJpx+rr76Kvjss0Lo2bMnjB8/XvAmt5+DxR5kNUcfH6P0SBB0V3pRAhqlCnY/TophYcdQatwYvDxsGMnR0rdPX25RIdzU4UYCk6bxqqTSw5do7PElSnJntKCwKx8xBMj3frArWxAkOKU+CLRN1GFBWLBAi+82Lyw3upCY+I2a2dddfx1JZoThg/SFfT373LPwyaefwucLFpBzeDwzx5wEeGH2vFNOPpn8G8X3jytXmmGOmpPihyTTonFphT50C0LnzjB12jSHeXzhooVw0403kSgGVGJwMcGjkNtuu40svni9+OKLpgUE/961cxfc200LczQtCNdcQ/IIoLUEnTaNq1///vDC0KFMtUHEvmXzZuJtj4mbpk2brpv5AdyOGPCjPy20jhgwZPT999931B/Q3m0tcAsXLiRprPHCyob4v+EjRkB27956U83Rh7ck2hWEdu3b+wuB8rTeetl6OrFjXgTMDInfWThvHrS48EKGIp6gsKRUmOICRbrEWc0xHdNaC+huf5HRazKwC5JRRNg53OBHQRCe2XFNLeK56sYzsdJSGDlqJDz+2OMkk22fPn2I7OFdn336GeTm5ZIcMfZwdGf7+OaqaEIZvSKOnlk9yZqCc9k1D0JAc9Urv9sVBDxiqEJZEBSEhl1kKzwiUBFceEZFQVCRL2mlsRhG1Nku56P4S6ykVItiGK5nUsQwR8MHQe8Ed6x43m0kQsKOL7n0Enht1GtkQUdBjgs0JnHABRrP/LH92l9/hcvbtiXJhfAa9vIwkjkQEzFhLoIpU6fCgIcegl27d5MkTHPnzIVjGxxLMGG5TdoH4frrrycmf6yFYPAROiCi2ff118cT50MMg2zbti0cPHiAnNf/+9//Jm1vuOF6KCiYAjVr1oL9+/fB9yu+h7vvvhtWr1pNzP9Tpk4hWSHRsrBv714448wzSSpmvPA+RjageSezViaJuti2bSsMGDiQRDks/34ZnHB8QyIjkOhfffklqbaFTpkYXYG7/Mro9KlfWFeiU+fOxDET72OtdywLvWP7DkJDkiCJGTwtERUedXzyySekl7p16sCqVavhiCPqOct92kadX83RyRr28FERxwsZkGsCZlvjOT6moka6Yf2NC5s3h/pHHsmAwV0S5s3ANNvIl7hTqlxJry/BM5R4CGOMB7tvC4KbaTwk7AyBRYHiPJF2GGI3HP2KijUfhHh4Jii643Epbp4wWglDsJ946inb8XiM5BlBJ2s84rzr7rvhkUcfheeff86KNKPBKMzVoLCbFgQ9UVKr1q2VQvPCpDseNePmEte5WzreAvkF+c7y8ykwV12dFD3MVbkFgRp9YkGgUi1bYY6sxMCiTFdceQVZ2IwLi+ugGata1WqkbgGa91EBGDJkCLEu4IKH+Q3W6Hn3UTG4446upPZBcVERYM4AXIhxYcZ0w30efBCwONMVl18B1153LUnJiw4ueOFO/7nnniOpkXHRxskwbtxYGDJkKOkDF3G0FKBWjYt4r549ITcvz8SKuRJOP/002LJlKyxdupQcSRjFTVCZwMUKd4MP9e9PFmLMdoi5HYwLoxlOPvlkEn644vvvieDA0FC0ItDX7NmzifKBzIbKDIZf0hUKsYIhYsGcEqhYYaInnDTvv/ceySyIUR72C9+JtMBIEsw8iP1j+BBmJ5NdzkRJyUu1jBYojMrA6BAcQ8wx0rJJKwAAIABJREFU0aN7D7jxphsJrTBa44UXXiAZNbHIFTqzovKUCpdvBSEVwEcYlCnAc1JUfjgBDVHOYQZUdNpFOYnHqOgcS/Q83OARpTkN0MKAMgcjnNCCumz5cji7adMEIPLWpV1BkFoQvHUfd2uUrWg1fvzxx4nf2sWtLga0wIisM3G/MI4O4opioN7LiWIw7hr1ra3WJaWleqIkoxaD3QdBa4sL4rKlS6Fbt3tJMhveNXToEHjwgT5ksSeltGMxeOvtt0mFPvuFCgRqxS+99BJJeYwXOhOiUxru/LH4CO2DgPdx0DA/AdZUwDM29G7H4j/oYPLa6NHMoP7vf//T0idzLrRy7N+3DwYOGkQUDZxQ+G7MBom+CeiXgccZDz7wgKlE2LtBawY6WFaqXJlM1A0b1sM3i78ltSW++uorM7/DtddcDQ8/8ihc0KwZyXCGC3yXzp1JSKfxzZgI6cRGjWDuJ5/wF8QYwLr164h5DhWc3NzXSd0Ky7Spq7earGAuNx8ES0u36+uGOqp3aLstfo5DbOpZPHJCxcuwhGBrDJ098cQTSbKotWvXQMVKlWDokKHEb0SzFvH3Ep6x6w/4xU4UhD59YczYMcRKhTxLohgMWx3XDcQPdiq+3nYu4Rc7OypUpxF2nTQWTUwLQpEexcCITAUDruvWVx9bD3THCKZu3bqR1Oyq13XXXktqxNCVahVCl1ya+OcZ1gehEFq3bkN9hoDB45yrKvyOaxNG182fP49E5v3++x/kMdy44KYNU/Hj5jejShVdpPJkZLhzlSgI48cRC7WWatnIg+BNzqTFsEaxYo5NXAwxO+JwvViT3YJgvlpfg9b9/jsMHzkCvl38Ldlho1UAIw963HcftG+PWfqcFzoM4o4X6yfgrhdDHPv06Qt1atcmKUL79+9P6hg0OvFEeOapp4iJHy/agoC7bhTMBVMKYM/uPWT3jedrd919F3S9vasjaQ0+v2LFCnJehztTZAjMS9C3bx9o2vRs2LxlM/Tu1ZtYEmrUrEmUAcwWSV/Lli0jdEHfCQwtQqXmtNNOg8EPPwxn2ZQPTI2Mxwui67nnn4dWelZGdDDEVM+ICxUTDKV85OFHoPEZjc3H7XT/c9s2rcR0hQrwydxP4ORTNF8O9wtrMbwGg/Rqjmg669C+A/8RBdlnPeje2I5dY0XtVxxvHBO0RKGyhBfStW6dunD2uecQiwwqdnyPCsHXhoC9pIQX5iiy4HgA5KGpTMi70V3GKapjy/QTAHYj/DVVsPMtCAIBrCd/SyR2jBjDDLNeLrTCtWjRQn9EETujinsaWKEST8twsxaDJA8C+52Jw47H0Hg8/dP//sddKnHxxePNs88+29fUEG5s7Dzjge5OC4ItPN6NSShSejtisNViIGGOCg4aKNzRZIw7QFyoWW3VOcx7du+G/Qf2kyRMaGHQ8sNrSweWft6zdw/x5seF37iYVMuYSXHKFPjr779g+z/bycKK9QdwV+52oeKxe88eUgwAjyno/jFCYPv2HcTyYGmKNuyxGFEOUIPH78Q+aOziQ0r3KV1yqIRUfcSiIEfopaTdnkCrCkZl3HLLLcT5iM4s6DadXVMte5UDXqSUS1sM1dqydSspcIW6LH4/1s+gx0aqxYSMnXfEQIe3yklDAQ4ZO0/CeYNw+GBXL9YkH/GI7mnmJk/ZSdELWaVtLb4tD/yOTunjxmuplgvy8wFTLTsv+VylFAS7rcZJMHuipPlMFIMiWUkz8WCIe3HrP0YKjxg1FOhUy8ZTpr8Vt5vkYmer+Tlp4wU7prju268vvD7+dfjpfz/BGY3P0PhCge6jRo4kzn4Y7oSWHK0Mtzvdg8QunMMK2PlGsORg1xSEPjBmzFjqiEGzINgR+eX3iO4SiR8Cz9B5EDB1MTEiG9mAy7mcScRc1SLReNUc5WtTRHd2XbVHMfBrMfAkEj2yMeBaEERCCzMlarUYhhOnMfSq18o9U2sQ599S5c3PMzaQbrUYVN6vdUf/v8pTPL3f23PscHguL0R21lh9Ev0tcCwWLVxEokLaXt6WVG9UuQxSMomSTAVBpQeZQVvcR1mluzW1nDwTppOiomrrGIB46a7GFe6tyjr2CnrpSwzNVk2zHtFdzBPOao7Ocs/J4Rm/b2XXRb+9+OGZAJ0UMe2emhMCsSBgoiQzzFFXEPi5OoOQIU7BxtTrsEiOYZNIFLww7ziGo+BRhlN5oWJK6RHzO3oevpKNGlN/IW1TMNMKxQB+/OlH4lG7ft16aHDccXDcccfBJ5/MJREheMxgnS2qgXRTEITYJZ8hwm7LuK0G0GersLEHqSCEjd0nibmPlXfsvFoMhyO/s4OvLtfsTONMlGSVe5YdzwZDd//YyYZBsDYlA7tKHgRmcyrA7rAgWMunk1j2MMcFC6woBqO1/b+sDmVkzsP/OuvB2RnGvn7jfZ5DGoafYErRV155hXSBmQ6nTZ9GchFwNATyE083SAZ2S4ExKMJhUttPxp8YOjlgwACGbCi00KESlTjMaW4of9q4utMdjxgwWoM+YsB3iegeD3Z6DMoa3WXY0V/FnmpZxQdBld/90J0RBnRhUcexh13UBjtXyxN2ywehCBoahdpc1phkykinBieXM2HzDCoIPckRQwbMK8QoBqcFwb6eiOR72NhlMlK4ENkXI9tA+eWZ7JxsGDdWi2Kw+yB4kTPOIwaGb1gmchRrmr9AKb6e+Wa9S+0/ihqboBnGomKxJMweiHHwRsIidGLD0JPmzZuT7IyYk0DIWM6ZI/4lQOyOl7jQXYQd8yhghAM6RhrXTTfdCC+/NAxOOZUuPW2tAm50Z50U86F9uw5qxiUf2L2Q3WCTIHgmCLrLsIudFOPj9zCwS+eq7BNk9y0NgeIt3kOqHQlGgzdXZV3K7tuwizMpqnaUPOxieZg87NJUy8mQMzJyyO4nid97Z+fA+HG8MEeK5xSwO4s1ubilaQqCVYtBGOboLsk4vEnPZvdlgP4mzEswe/Ys+HzhIpL8g1xpWBQKWwFUqVoNbrmlo0MTZekiW3Y4VOQxKvlNHTtNIqM7hfFiVCpMdoJlqOfNmwf79+2Hlhe1hMsvbwt169YTK0Qu2EeMHEXyXGgWhHxoT4U5irD5xW7YcMTfnLp0l2HHedKnb18YO4bKg0CVRTftV0ngGRl2rjdJivB7qmG3fBCKoVEjvYKoUP6WXTkTFt2lxZokLtPctVjqV1Z25YzbXKV9EDQLghbmKJPj9qXbUhDoJ/XDFHtnTifF+ZBemSp1aT5gPem26FHyUbYpcy54DF66rrMkf7nwOaOPwxf7qJGjYKCeBwGLblnVHCmiRXS3Vyx3RCeXchMlYUVT92qpzkkQ0Z3rq2ISkuwICNmSIWfSdB8nzHRK0p7ztH47uBTBztQFsRPPVUbizcTQPS83F7J69iTp+8kRQxv9iMFtbUoR7AwHqsrIBGLP6S1KlMRbasVyxkceBDqKgZ9JUXG1j5qlGAXiq+aYYh+TRDhBOikm8TOiV0sokGqplsv6gGGCvKyeWSQaC62iqZZquSzRN9uTgiD+MsaCYBbhERRpwZ3RIOqIYYHhg2Aqlbom4qbOe6Wy0ZeueRNXPnsxDPpvUYEZBppNYyIKcYSdqcWQXwAdOrQ38ycklu56oni1YBo5B4XKM07s/FTL8loYzFY4FH4PmO6MjVd3d07YXE0+dsOCwIQ5KsmZ5GPXM7hxrR7aJ4hkZOKw503IhSxSzTEDCudRToqByffEYcf1I5VkpHKYo0TOeLIgYArZwVSxJnseBK7kFioLcS7IQSohoiXH9g7rz/KJnRfF4CBNRHd3BSUGpD5H3759YQztg4C1GEjREWcNDLnGo3j4qtSRS6PDjN+VyOUyXrwwR6U+7Y1kdPfVaYrwjAfsoRdrKsd0921BsNFEqiDQ7e1hjlhIp0LFCoKARV0PZeIrNW7BjSK6FKpvGNWlqlESA98je0pQZdt8kmeMKCvYefNShn3s2LHw6KOPEifFN998E66//jrlUQqS7n6wO58Rjb7z96CxY80AdOalFQSVMEfrG2Scy5e6/p6SS3Bv/XprzRgd5FA8t/CGxltrQ0HAHP1HH3UUkTeG0CGyjfxAOy+zoczGTl2TM9qenQ4qNR5nPpqWp/ruT6/VqIeOs9sYEpyPEtrUTW33qZDXZGN/+623SK0dLGz2/vvvQ4sWLcsMdtriovFBcumOCQ0nvvEGCfkvKJgCdevW4cwduYxkFQSmPWPXIQNFOyliEiI6i6LnmRs9kHIUQNM4RobghWNLJ5pKObApDghDcPF/WDRsztw5xGzqw0vRVHIdU1kyVz2Rx96XnjHDWHgsy4e3BdRonWjs5tGog1r6m5mFVI0yKtgNBQHr0Rj/Vus9asWjQCR/guMLlONIz4suuohk1G3QoIFr5yJ+V7YgoEJUGtNSLQ9/dXhwXxL1FFGgHFPAKvfM+iAIFyB9F+nFvmaQj9+nt0VdZSgi7LphQE+1rEKzqE1EgWRQoGXLljBr1iw4tkEDy2JvigS5bJCWe6a7QAsCJiZas2atqxhzFyAsmdwguhlAsBeVIwq5EYWPR046hdAqgVEnVbFjNUvDgoC7IqyCSV+GyTOiuzrPHHFEfbis7aWaBSGOS2UTzONZrnFA6fhNbX6pfFJZxu4m6AyrwfDhI6B69WoqpIjauFBg0aJFpEgcyp1+/frBKafYkr1F1FOmwNRpU+HzBZ+TvDhYdqB+/SOVn6XP5p3VHJkZYRM5HAmk/WRvx3E84MJTUQ/sbtC8juh+BOpJhJ0inE+6O5wyyhDdI+z8lDGiqB/HNIt4xp6gPS1Nq/VSXFwEDRs20iiWKnKmDPK74aSIKeILC+kwx0jOaLylvq5mZz8A48aNJamW8/PzobZZ7plaH62zOZ137f07qjk6uVtlJ23KEt4HiLYw0gxXNgklBRJhd2z3za2+c4JJyWl0Jm0Y0T2i++E5V33lQYhkJH8nGwMgFXmxFgM3D4K7nJGLKc7imui1yew/fOxMsaaCfKidWVtId64pXoecVhqLoR6hX7bdt8qmgXo0luZScEggRf0vXfYYhDiwE8U/wq5mVC7HdHczwnF3hqnCMwjc5eAnws4pziZdUkyZyBaWs+SMYUEoKuKnWuZbExLIM45PcpurKcYzHAWhVevWFFfT8j0c7LQ40N4u4JlUo3sMoHdOtq0Wg5ZqWW4YZHkmLRbTyz2rzheBEBUqY4LzTq+v4ytj+q9eO3Pb8Nj64nXt9XURdgXlNaI7X4XmTSyvDBjxu5vq55vu4mJNEb97ZVFsPyFPsyBkpKdDIcmkqJd79tpZMvnd1F2SuzapJkpi1iYOdmkUg/LMihpGFIgoEFHgMKJAYImSDiOauX1qrlHuOUq1HDdHMEcMjA+Ct66FFgRLaaPUNxcLC2P0kWh8HIuMwEIqM/zztbQIu8IOBpsIxymiO6FgEvjdvfhQavP74Yad64MQEM/ITcFGC660ox4Pn2f8YjcsCOkZ6TCPOCnyLQiJlO9+sTvdvYKhO3Mo4MGS4m5BEPCM3dSNbhuMD4IrABk6+r6CvdjJwupjo7fkWV8Vl0YXNSrC7mWk3dNVynqihyGiu4xaEb/bp21yecZpQZCNYKL53fn+ssMzMcjLm8A4KTI+CHGtTYcf3d0UBJaU7jwT6BGDl+khXqGD6cWbIUWellmtvwi7Gp2sVsFQLJheIuzJoUA8b/U/8v6fNPD6OWJw2UZ5IEP82D28zGyaaOxmLQZfRwzuNEk0dj/0VJWCfrA7azEInBQlwDmpltWYj6SaRr9IwwYieMz82fkPLjSGGI6847KNf4TdoFC5oDtXNDl5ICV5JsIu2QOoz1UmYaFMzoRId0NBKC4uhoYNGzq+1zUVAdVasu939kv5ozPvENAGE6Dt27sPatWqZVWtlSwMycBOFISeWeDMg6CQ2YumpzOcX82BX1K9hybvqp9XwaZNm6B1m9ZQsUJF9wAwNVYnXxAU3WkLQkF+PtSqXduMYVDhGVMJjmFlmYAvMT2sOx5oxnKHtwcD/LIIu1LqygAprnUV0V0pOqkM0T3xUzhxPENjNxWEomJo2MipIPgbkvixo0j/9ddfSQa9WbNmw+rVq2DPnj1Qv359uOiiltCzZy+47LLLoGrVqv4gCp+KD7ubk2IyeQZrGqxZswZ+/vln+PLLL+HjOXNg5Q8/QKdOnWDy5LchI6OKXVQxFEoG9t69e8P48eM5iZJoaBQyAUjuEQO/rfwzmZ2cYipkAVw54yrvJNhFRtRx6mL3Rgr5KLnvwKVv80R3aW+c+HT5M+HwjBxHqDwjgONnvO0zwk8ffp6xf4LfPpJJd+Pd+N8KummDyaQoYZswsK9etQo6de4CP/60Eg4dPORAlJmZCU888QRJZ+ylIFuisefl5UJWVk9uoiSa7iqp3t14zSvf7du/D1584UVYsnQpfLFoIWzfvoN0rykIkwHT0rtdycAeYBSDyIKAn4UXPRx20rqR2k2bNLzk9TbCbng3VIY3ws5XiyK6iydyxDMRz3hTPfk+CMmVkZs3b4amTZvA33//A/dnZcEdXe+A6jWqw8wZM+Hll18CPG7A6+STT4bZs2fBOeecS320imw1mgcv38WplnnLvWxtUlmyeb5nYhlZWloKL7wwFJ588inAf3fq1Fm3IBgKggr9VORM/Nizc3Jg3NhxAguC+rrKsSCofKSAp5QeVWokpJB7OmqPfXtWiT32b/uKCLtOkIjucvOEQSrX9Ose+bGM0J37VSmI3TpiKIKGjbRaDMnEfujgQXhowACYMWOGlkWvXTuoXLmyyWsLP18Id9x5B6xbtw6qZGRAfn4BdLylo3k/mdgRhNNJUQ9zdEcYKt2xCNJ9Pe6D3bt3OywIrHxXVxQTQXevFgQRdlNBsCfl1MbERdNQlE2iRdF4nPzX7AsLM9Gej5wFhSNaQ8Ou40w8dt76YXu5ZIkRObtE2A3OZhPoulsW0mxTQcz8qU/3CDsZzADkDE9BYOQmQ2r/dGdFsRj72l/XQseOHeGFoUPhmuuuhQp6MSlNksfg4IGD0KtXL5g0aRLpcsIbE6BH9x72bYxmNQ4ZO77SUhAyYN68QmjdurX+6cmZqzy6z5w1C7p16wa7du3SFIS3J0NGFfERA39tUpXv/nnGoSBkZlIRBR7WVYeTooAx2IXcpj44brpoD9z++YoIYQtaeXAwLp+37cpNhN2u6zFqgoOInunO9GCNZZmge4Rd7C3kda7ad3qKmwiHI6rtOVYE0DcDlDM+sNtTLSeN33XsGE2BTnS333a70Kv+0UcegRdfegmqVKkC06ZNhQ4d/mWtg0mmu5EHwUq1rCkI/MtdzrDDGRzPzJw5k1UQiA9COqVUqTB94rFnZ+fAOLQi3XADYBRDJlXNkVtbhMe8ZPOegCgGyeY2uh1RIKJARIEyTwErk2IxNOKEOabaB+7fvx96ZmXBW2+/DRc2bw4zZs7khmcmC7flpMhaEJKFh/devoLg7qSYDPzOPAiCao4ScEIFARUKvMQeo05NSag72eyu7vtXl3eqmr0i7LoRhT3AjujuYrKLeIbLM4b84Nv4kjhXuYD4DhuJwi7Lg8B3gROkIhCcxQaJfdnSZdC+Q3tYv349fPpZIVxxxeVmJIZznRDI9wTSPTc3D3r2xHLP7gqC77UpAOyzuBaEDPUjGb9yxiP2nOxs04KQr1sQhGu5y7rq0YKgYj7RzNlW6WeK9RQtPfiE65sUYbBMr/hQhF2sFCqSMKK7ToGI332mKFVktCTPVbUoBrGFPCwZuW/fPvj+++9JCOFP//sJZs2YAR3+pR0tpNJcTWQmRfM74+QZqQVBkXUTTXeRBcHruupRQQjSWOKLkkECiKOvCHscxIvj0YjucRAvjkcjuvOI5yfVsrdBiI/uGIq3ZMkSmDJlCuS/kw/b/txGXn9JmzbQ/6GHyPl0pUqVvEFSbu0duxnmaJZ7dvNBUAbio6EYu1RB8PG2YB/RsCf8iIGAVhpjrZHdfM1/1ParvRH5W/+R0xQhKSfJiLBTfBfRXWkSRjwT8YxOARU5o55JMXwZif4G3bp1hw8+eB/27t1L4vbp69hjj4WCggKSUdH9Cg87KgjoI2FVc3RREJI0V2fOtEUxTJ4M6XqiJBWeCWtdzc5hjxhq19ZrMXhcV61yzwIusS/8SoKWFjOCOG7e+IrHXHTHnUsi7M7RCprubv0pzWEOQ8lCY+lH4uGZCDtL/FSgu1f5YrRPBvagLAiJwF5aUkIy/23YsB5++GElLF26FFasWAFr1641SXzFFVfARx9/DBg14PcKErszk6KVB8Gb3FL7Gj/YaQtC506d4e3Jb1mplpnXWoiTgT07uzeMG+ch1bIAu/sRAzmv4e3a/Yp+28Apd6Pc0HpBErArWU1UeDfCLqYSh8gR3Q2/n3Dn6uFOd3uYo03d8mLvTDi/Y7Da4sWLYcBDA+C/X/4XjOC1b79bAhc0O9+vYFYxPgiWHqeaL8qDwH1JkmSk00mRqsWgItuxjRC7agdyo092DqsgYJij08IhX1edCoLQm5aXrIKzR8ef8KLQMMki3NMJchiV6ox5HW+lEHkxR9idZcLcmMw2iClKd3GCrNTnmQh7kHPVMINT89yzHPPOM1YUQxE0bNiIJCNKc4hhmYwMF/vGjRvhrLPOgr///psIgOHDX4V+/foLsBsygpK1jGgIFnterl7NMT0DCqlESaak8jSmicEu9EEIVEbGj52p5liQD5mZdJijunyXOilKzSM23nE7h3E3ugSkPVHdRNg1YqQC3UXbCJkOWz6wB8/bvB5ltKR9imRtZfc9f5GkQ+n7fMkZzyj5DwjAKR8xpBj2oUOHwGOPPU6+FSMbXn99vJhQIWJ3RDG0au3qdJYMnlF2Ukwyv9MKAoY51jYTJSnMCQq7TUFwfhX9C3vX1pYoJc5dAZqytIlk01p0aeXaJ/0tXrhBfy7CXtbpzqo3hqpTNngmwq606gQ+V8Oju5UoqQgaNeTVYvAqI8PBvnz5cjjvvPMI5ceMHQvZvXvbNhJ2HIb4dpPv8WPPm5AHWVlZJDNhYeE8M9WyfZtjKLrByXd17KwPQid4GzMppmdIvOedWlaisSvXYpCsq4yCQNpKF2Jqqbev+dRkx38SawLdqaC9XZCYEARYeD8fVtg589f4KeXpHmF3rJuh8HtE98Dp7uaDwIg6jsBy3tcbhSAjf1j5A5x99tlk47ZmzRo46aSTGNokC7tbHgTP8j1B/I7ZJ7sbtRg667UYqHLPgaxNAWBnLAgF+VA7s7ZlQPSwrkqPGBQMElGTiAIRBSIKHHYUcHdSTF1yjB49Gh588EE477zzYenSJSkDNL5ESeF8hvIRQzhwhG9RtiBIcMoVBAWLgvUOD6qJ7nCi0r3RRqWtQxWONziVqxJqpjYVPBF22UyJeEZkQVPhr4jfKQqEPFf9KQiC+n4BYf/7779g7759cOwxx3In3l9//QnNzr8AduzcARMnToQb/3Wjp+Qy3LqKAWHPzcuFnlk9Sdhl4Tz7EQPnczxNkGDoPmPmDOjerbtZzRGPGLB0ticouoWAHyHIGzbv2FUUBJW1Ka00FkOctsv5uUICcE1iLuTyEsXgZm7zEOYSYcejHkFCCj4/ar/ylKuI7hzaRPzucDGi+aqc8kyaXk65qFjzQUi2nPnpp59IuedVq1bBZZddCk8+8SSce/75UDszE0pKSmDr1q3w/HPPw+R3JsO93brBsJdfhnQ9B0KysSO7mBaEjHSYVzgPWrVurRSaFxZ29KcbP24c9OvfHw4cOABXXXUVfPDBB1C1alVWiqYAv7s6KXpYV+UWBNkGUOW+Z/VKpdOQ2kTYQyK0VEdNDg4/b414xg/V4n8mZLrznBR9f0QA2DEZ0s033wy//fYbgVGzZk24/PK2cPppjWHv3j3wv59/hj179kBW1v1w4403Qa1atXzD9W+5Er/SriC0bh1CqmUJ3claGovBtm3bYOWPP8IzTz8NCxcuJB9Rr149GDlyJLRp0wYwM2XlypWDoadqLy7Y44pioN7PiWIw7qY5Ui1beBS42dHEbtDQ1SzRTlWgj4sxGGqR3qHt/fFhN2hCfYNhd+EeYfDp4xm7/kCEPaK7M++5gN8jntEnayJ5RosOMiwIxUVaHgTc7iZzruKuFheswYMHM0tM3bp1oVmzZnD11VfDPffcA/Xq1dWw20RyMrEzFoT0dJhH8iC0ob5DADYEfse01e3atYOvvvqKKFhGkikEV6VKFTjuuOPg7bffhosuvli3eNjlf9DYeesLy+9EQRg/jtTbYMMcva1NabFSjEMMQGWh4+0ZE4uCMuFXHfXUtXtj826EXc4MEd0JjcoFz8SVJ8MDI3hoKisCQ3flaVELWM7wLQiKciaBdN+1azds2LABKlaqCDWqVYcjjzpSDzWXTe3kYndYECR5ENivESx8eph9qvAMfwSCx+60IOi1GGQswAg2jGqk1SGVh+Nq43c6UwT0JGjiAmt7OMKurkhGdNcoEPFMeeYZ9WJNXubD4cszya3mWL7ojrktxo3XajEU5OcDplp2XvJ1lVIQ7LYaJ8FMPzfuIq24cpNm4sEQ9+LWf4RdKoIiuvMVPtoMYDMQRvwezVXuLlXnGSvVcjGc0LAh4Z6IZ/zzTF7eBJIoyVnNMZLvXuW7PYqBX4vBZi5wvCTGtyAoLvWc7izHd799SAkhaeD3vXwTVLxovD0fYfcQceWNtK6tD1+6a1/u9/vjHQK/76VR++0jCOwVSIZYgKKiImjUSMukKLtSBbvyqTL1QYnG7qzm6HRS9DveicYuG3fZUuz2vB/sAToplmL8m4ZPQn1632/Gw4a8srLRetTLI+wqPOq7TUR3vQzPYcXvfsWxLk6YyNqw52risfNqMQQjIxOPnScIko3dmSjJKvccztpUfuiukgeB5gGRfHf4IFgpGTjEsv3Ek5XOWuNHAAAgAElEQVTGb2xTO+sRH2Dp8aS9f/wgt/1OhN2u46Ue3Rmm1FMtlBWeibCL9Uuvc9XqSS5nUo3uBh7LB6EIGhoWBJc1xs7nyZCRqUx3VBB6kiOGDJhXiFEMojDHsssz3F14AniGqeZo80HwMlc55Z7pBDk85PFpWawmqNiXYjN536odCQSh/rj2H8W+FJtF2F2MGxHd+cRheCtxczXidxv5dVKLMymqTnp3OaNk1jW6UH1lSDzjB7s01XIKY5eaZkPG3js7hyR1coY5Os6MXKE7izXJTxo4pxEyESLT+OgVwL0v0Tywa+fyMx12ZonnV4Td7fQporu7sda8yxMQ5LeI38vqXLV8EIqhUaOGjs9gJUckI+nCfTx5m2tYEEgeBDbVciRnvMkZpwVBC3OUrZ/2t1gKAv2krE4C05ayOJi/Ww3cFFtKPkoVMIdGKsQgqZMQYWcKbKoRniJaRHeOJ27E704+Kv88k1ahAvns4uJiaNjQpiCUWzmDH4aX5rcWpHzPy82FrJ49IT1dP2Joox8xBLY2JQ47Q4mEyEhv2HN6ixIlSRQNG/YE5kFwYx21ZSl5rSTYU/rTIuzJ4ZuI7ocb3eNPtZzSgkQynMFjz8vNg6yeWaQ+hN2CECxvBY89WHzqNjVRy2xPCoL4fYwFwawuJSrso9NV+49th0CUSl3LUS9TJaer8Rrd3ECcG+3FMOi/I+xymqq0iOhubgoifldhGGo7eZjMVdOCgKmWbU6KEc8o8ozRLAaQNyEXskg1xwwoJKmWLQtCSq5NFHZclFJpbVIOc5TM1QRaEHTqCZU1RtvwyE2KjhLee2WfiLC7Wo7jJa/weRnd/b44jI1DOcJufUqchIvzcaXhtr0jDOyGBeH9D96Ho4882iWJB58AumzWtlpmYgK6tK9IRirKTkbJ16jIIlHpxx076TQg7O+//z68+OKLULlyJRgzeiycc+45Qsu9TXsXsEh42BkAKUD3V4a9CrNmzyT1N6ZMmUIKSyldNpJJFYR457ZkQ6+EWZqgwRN7KL7SpUKyN5p4a80opepQlVt6Q+OtddnA7v5N/r5YTn5v/YpaR9jllFbU8bkdeaO7oSBYwpez4BpaAGVzta8f3EWbO5kMU6n9Pdrf+P/Gek3/W0gR5sXJx75/3z7YvXs3gYuVJp3VESnAKYY91ei+d99eUliqZcuWMHPmLDjuuAYcjpfzu64g8DRJxm5Pq4lqc9Q+gMRGZJsa1ORR69RRgMx6jPs+p86s9J4Iu4NMHKVYaxPR3YUOZYffrVNB2yJkDHAKz1UGu5bwmM2wkSDshoKgJFOiRhEFkkABVBBmzZoFDRrwFATn8mlXGZQtCK5absI/3Nv+y658Jxp7IvZ1/AXZHx3chqc8YOd/gz9ahU33CDurX4U1V4Ogu6EgPNinD1SvXt20tNv71v62/t+YjxxVhqNssuqOsVOlZZx990rPd/odPDmAqOg+k4l92bJlMHfOHKhYoSLc1vV2OOH446VREqmC3U7bZNMdfTgWf7MYLr30Upg+fTocedRRnMSEchkpLffM68K+aVTM1KyaWkhJ3VDZFETYufJGib6iRhHdLWOabHrJ7nsZiIjuqUd3Xqpl++bEbmWT8YTsfnnmGasWQwb8f3tXG2RlcaXPDMMdDWwgyxI/fuxQlY2WRTS6VeDiYCxFMavkBzODRLdM1l8MMyMfitlfWpXEqmyJmgXjDAw/ostMVRQMLgqxiqEQtvwE1FSJglFnMIpbluywWAEZAner+/3q7rc/36/73plzqxKHe/vtft6nT58+fbr7nN3kkKIh3TPqd7V+5+IgDA7AtGmybI4KaWKIjWdz5CRa6AJJj7DWcdic6uBBDI9uODBrOeOtCLYe+RpQZp0gdtWawrd/kffYwbOayExsPNWRvI9j7A0NQRyEYWhp8ZM1lUVH1iHvYbrn5goMDbGBksoq75LD8iXhvbu7B3qlkRQZLmPuIi55Cn05YYshLt2pLVqVu4FxuVllFjMCSYldZtQgdovzocg7Z2ahzEwYmUkUBwH1jHzZSq859nvpnqVxEOpQz4SQi8Tu0cslaxocgOkqD4JqXvW/bzhfrZJ1ov8RVt82C3zm0WpDkILJNJtHv8dtQ9OzUYN8wqfxgp0YbuRAp9n9Ezh7ysP7BMJO7esc5T02DNjrb6TnWXl35B2xq4POOvAeeBCGh+WhluVeS0eZEWK+SD1Y0n0NT0bUOpLdvZfoGqknJF/sQRyEwEBonT+fUYOCvOtS/dUAOw+n9rx39XQLuRi8UMtmJz6PvaFa9dM9287LNvOWUJes6sTNyVZoiSuT7OHkgF1uSPrfInbpRloWMoO8Kxdr7NV1Tm8g7z4dFnpGnawJeXdVa6T8pn7Pg9BcqcAQzcXgp3t2rUygX9aVSpsqQYidMuoZ20BJJuzGWwwKewC/RgaQAWRgQjOgO6Q4oYlJ+PK6ZE0Jq5ywj3FbDAMDMH26wyFFhjWlB0G6CSBxv4kBOgK3t5MHSGkhmpy48lX4+MceLbo5R6HB0lZ0n9S/qHcmpuEdsauv8+Qp78i7M+/i8koYQNIzCIoxSL7Oa6xKEycZsNvpyPxlhsUeeBAqzX6yJoUHoYzYmWCSvAtK6ZFmfshIZlhFrvcgSBlkzg5F+p0/g6CdYFz8PEpWpBadqmZTizrXEd+QqSa2NGI3sYW8i2KMMjMRZSbuQTCxMF70jM6HH1fxtvo9uMUgPYOQ2dyUD3atRqgBdp2BYJJS9vdMtxjYik0g1L6f5E+m8Sch9rx419dbbt4Ru35MOciMQ1HTNYjCZUaBXb7FUDKZYeBUq1XYu3cvDA0NwZVXXglLly51mi3z5l00EExxEFwWgXljj42TGst7PJuj4pCibIAz2HkDgf5g92bktg51mQW+FcVj4dfxP5TeBOIKJPVyN4JMsBA7x2cS3sOuZK/D1gnviF1jcruO1bAqh8muLDJTIPbAQBgZGYGWlpb4HFEy3o99dgza2tvgzTffhPa2dtiydYtSaLTX+Zmn4hKSXGaogdC5DJpjcRCCk4MmZeRvicSv89sd4DeE8uOMjBzlPUrcpT4xaeKdC5Q0MADfnD49ivTpgD1TD4J5BR+9ll1XBzWyZrB7WggzLpsSiF13rsSGwWRlkHfk3VVyipGZ0EAYHoGWWXEDwRW1P72FCi5LHXn27FlYtXo19D75JG2mvb0Ntm59LhlEtVmRCnttDynmJzNu/ZikS+LYu7q6oK+vD26//XYYUB5SNM+rUgNB/kLm1+QsrATzuLkFrelKf0TsmqyzCtlLw3vwbD3yjtjFKcleOeUnM2YMtdQzrMw0+ku9kREmkqIBfq2wb+jbACtWrgBiKJBPB/EgPLfVTLZC5Tr1v1+H6Zko1HIFdtNrjvNj/iBTHaoXKpR3AYRez5i7IAn2DG8xBJsFIlACi3zY4Api9+i6S2eRBae1/TLKamQ/2IgIYpcbS8i7ejiOd5nRKaKyj9VyYk9yBoF/k2J4P3DwIPxo0SIYHR2FM2fOUAhtHW3w3BZiIOj0e7G8q0MtJ5mbisVub2rb6Jn02Lt7eqD3yV6FB8F+XpV4EGwm4DRmpWP9ZgNLAcbiQWfTbOJi16fXcOSlYN4Ru2QJZ9VlVoWUAy1T3tlWrGBZFUqFPdpiGIaWWX4uBpPasYJlVcgK+8mTJ+Huu++G/fv3w4MPPgjE9Uw+STwIdtn2kmM3bzEkrztv7HRBJp594HqoWOyuHgQV9tBAEINDqi0i06pfsJEVB0Y4t0vIHYkryp58lCg2ybBIh13dcaqDOog9kA4+kKubzCDvVNgzk3fZfCEbq2XkvT6xqw2E8vC+du0j8POf/4LmOfjudy+DuXPmULLVZxBqhz26xeBnc/S3GOT6PW+Z8VvNZW7KH3tXdw8fannaNOZGgcO8WiV3X9S2KH/oRNAtLHf87QeNtST9SfalpIOIO8zaEIsK0r8Qu+Rwgob3UCbcDEK2g/LhnTPPBMlVxEAvjcwgdrmqyXus5sO7GGq5TPJORsLefS/Dgptuhp/+5CfwxG9+A++//z7MCQ2EdthKbzF4Wwwy7KIKiPrOVr+78d7fv0mTrEmUHL3MZI399KnT8Nmxz2B4ZBgO7N8Po6P/B1df/X248qqr4OKLLoIZM2ZAI8nu6Zh5MC/e2WyOgwMDMC2MpOimIwu+xWDyv+HvyAAygAzUBwNRJMURmCW55ljLt/jwww9pnIOvvjoJ27Y9D7Nnz4YDBw6EBkJHe4f2mmMtsEeHFHkPQi2wsMbQRx9/DI8/9jgMDg7CzJkz4XuzZ8PY2bPw6quvwokTJ+C66+bBypWrYMmSJRDIRG0xA8TjICQOtSz3IARuBbVBFLcilXal4KvX25UaI4xrQG3FIvbAhcTv75SWd6kjA7Hz3rIc5B15Nzk0tKl7THEQZO5O5YoxQx157vw5eGDNGlj/xBPw0ksvwYIFC+jExRoIbe0d1IPgrN8tZCYgVe6fVOv3jRv7obOTpHvWGwiJ9XsC7F988QXcdNNNcPjwYbj6mqvh2WefhZl/NxOI4/2VV16Bjo4OOHXqFEydOhWWLV8Ojz7yiFZmisLe090Nvb3eIcXBgUH45vRp6r7WzKuOHgRLXy1NUSrZn2YfN1Sl/dkSBj/6LR9C7JaCZGsjI++RD9dmM09SxpJClHfJ3mqOeibVLYbc9EwVXnzxRbjzx3fBylUr4eGHHw7FgjcQ2uG5reI1R0tBywl7LJIic83RrG2yx3769Cm4446llE+S7Gjvy3vhqu9fxdnt27ZtgzvvvJPeDpk0aRK8sP0F+OE//9DRk5A9dpUHwXVedTQQzN1kX8KSFPsKCyyJ2Askm2kKeUfeXRnIT2byz+bojv2tt96C2267DS677DJ45nfPwCWXXiI1ENrbyRkEtzgIbsy7Yw+vOYbpnqM4CG5tpy3tYd/YvxE6l3XSyu69915Yv359rGLiSbh90SL4w86d9LeFtyyEzZs3w7cv+nZaEAmf97DnvsVgs+rx3sADFIiD+F/tqkaUIdb/Jvxmds0IfFrJJ2KPutAnDHk3DEyUGZQZT0TsIykWIzOjJ07Aj5cuhT179sDQriH4wQ0/4GSZ9SC0ky2GLVssDtUVg520QgyEzmXLoNJcgd1DfKCk+MwsicQX0/nJsX/99Rno6GiHHTt20Kaf+u3T8NN/vdtrVGjnqaeegnvuuYeWu/iSi2HHjp3wj9dco9YjsrkpQ+wEX3dPtMUwsHkApn/Lz8XgqN+jdM+K19FP+GYjR3W/0oqjsHrVbK+3AsYDdjPD8hJl4B2xRwwUKe/Ie368s/2YlQfBZazqZp1f//o/4KGHHqL/e+CBB/yiEWLeQPA8CFbrKI1AZYWdTLzxSIqt2tDNeWL/n2OfQ1t7O7z++mvQ2NgIu3btomcR4p8qvPPOH2Hx4sVAcnI0TZoEO3b+ARYuvDlX7KouCTjp7u6C3l6HUMtchRGz+i0GutfkGZm8IJi6xvR7THYNpoBlfexLJsZuqV4lkOQoEbvHaAIeZF1REO9804hd1n15yHs98S5ec6wJdr8Tjo6MwJy5c2FsbAx+8ctfQqUy2Rtynvam0D45+gn86t9/Rf8me+ldncuh2tBAr+ndcsstMGXKFLVitlSLinlGrt9DAfL+UMVBkDbN6Pc8eD98+AiNFfHee+/R64v7/nsfXNfaGp3PYrCPHP2EHlY8eOAAhbJhwwZ6XVP5yQE7NxapB4E3EMg1x/BAqsC7rmvjBoLCJNQHI2LgebLIua64Z/XhpgSsQmUiC+JxOsSeL++Uf9kMLQ8hViqZQezMZOGrioRjVd2vzMAPxCQT3gO1kF7PZIk9usXg5WLQB/TJF/vrr78B8+bNSzKNQ2trKz2df+mllyqeV2H3vrfR7za892/0szlWmmFo9xCXi0H3Ysl412M/dOgQkHMaR44coU2Tg4rkRkD0iQbPl19+CXcsuQP2vLyH/tzX1wudncut+iIP7KRhLpvj4ABMm8Zec1TMq5KxajykaFw7CbKjixNhrMuKUvtCxvYQuz2ZDiWRd48sIw8OnNoUNbbnIO827WVZph6xW28xFMA7OZxIVrGejicGO5G/hnD6Jv8aOzMGx44do9124Te+QT0HxDVMDAtyJZIE+9FPxBZHFlIIhestBqPMCNO5VQwj/5nPP/+cGgivvfYa/WbdunWwYsUK6dsdP36cxkAgZz8mNU2CnTt2wsKFCzPj0uU9g0ZZA0GdzdHcWYKBEIfCfsP/KpSlRkl8JUlOeXoDSVyuBBYcK3QaKowsIXa2u5F3mxk6T5kRTYQc5d1/jezGKmJXq86I5ShQ0jDMavFyMaTTkcl5P336NBw9elSr8Q+9+y50LFlCy5DT9uvWr6N/kzv8xHvQ0NjI+GRd9Xty7AFxJBw0cc03N1dgKHZIMW5l5SnvX58Zg/a2Ntjp3064ecEC2DU0JOX30z//mfL6xhtv0EOKxEC4hjukWCx2MqNa52IwzKucgeBZn+Y8zdxULykf/53RYIRigykXVqnAIvsasQsmGEuIaJsp1AjyLicG5d1iupyAY1V3BqGMMrP/wAEmF4P6mmOtsOs8CLXQ7489/hisuX9NKPzvHz4Ml19+uTd9MfL+9ttvw+K2xXB05Cjceuut9JojibgYfGqBXeZBSKLfjVsMZicElkAGkAFkYOIxoD+kWD4+zIGSaovZdYshb7Qnv/qKpsnet28fbYpsIzz99NNw4YUXck2T+AirV6+mnvJtzz8PP1pEziq4bGhk/ybWHgRD02YDwcKjELXhsozwtiNsqg/K2JTl3tfpAcQuygrybhq4iiNGUhdX+eRdlotTOiD9w782w6komSkDdtZAaJnVYjkl1E5mZNccaUJR/6aaSdrJsjlP3oPARM22gZIKwE5uh1w//3r49LNP4YILLoBH1z4Kncs7adRE8nn30Lv0d5KTYdWqVbB27VpoamqyoTJX3m0MBJux2nC+WiXyIXziqkCpHKQ/aFSJyy0GnWvc4arIuMVOeo3rvDriHbHHlUgR8o68Z8Z7A8neB0Az/JEzCFo9UwLeD751EK6dey2cO3eOhhB+5pnfhVyUAXvoQfADJbXOny8xuhznpgx4f+eP78D9991PPQmTm5rgrrv+BW644Qb46KOPYP0T62BypRn+7Wc/g/vuu8/jM6u5KQV27SFFBz1j9iCYbSFzCZulh7mW2pRA7KXkvdTdYgCH2HMSqYJ5lx1STPxmBWA//uVx+P3zv4ezY2fhiiuugBtvvDExXBdPra28iwbCfKdcDAlfxZJ3krRp+/bt8KcPPoAjH/wJRk+Mwj985zv0TMKcuXOg9bpWqFQqCUEkfEyDPcdbDAFYJqSkDyTCY9HlsSKiQ8M3s2JWUtC+vA01hsAs8isUmkPsDCGBz0i6TVYm3kVZqCeZQey1GavF8R54EEaGvTgIfBTeJDqyOOwc2MT6XfaOyfUMfwaBxEG4npk5FQq9YOzE+3Lu3F/hfBVo1ESy1RAYinp5D27yZTGvmnnv7u6B3r4naewG/pqjm35vqJ4n9xBtLRi90Ie/ci4Wi4HiYo6yZZ2qtsTOHVB1asDmXl2E3qlqxK6XUAcyHYqaIhmwVTkZoCjvBoVTH/Iu9yDUB3Z5B9QWe8yD0Drf4axfbbHH+Kyxnol7EPxcDDZTPYO9mC2GEFRSNcogdiLehg3bMojd3pC05dSmHPKOvNvIiXzl4KYuzHqGrc8+WZML/vzk3Y0LF8xxr69bW15pXTZHt/qKx05bVICsBfburi7o7fNyMQwODAAJtRz/mOWdMRD8wuEzcUENzxdK39iSBlpMPQjUtejqR+zGIYG8CxShzKDMyBiw1zNRqOUR+PsW7xYD6sjk+r2/fxMNlBTP5ohj1XWsircYuFwM1h7MKonKSUSa/1hO9em8KsY3TlYAsSfjLe1TWfCetA7E7s4AyzXynoy/RhohFmB4eBhmzfIiKZo+yLuaoXg2x/mZzTEe7+z/m3oq+9+TjrMk2DM8pEiOWzDJWzTnEdh1f3gftmCJV2aVNLCfDfakXewJG2InseEFV5wVpVaFlCMaeUfeXdW9jczIcjGgnkk+VuOBkqJ0z6aAObXl3Z/CuUwDDA81mJts4iD4s5JnOimwxzwIUSgMyVtpXlT8if+32H1BIhH9sBVtD1JaF1oJsatjwXvc5MN71IvJZCZ4qhYyg9hRZlz1TCAz0RmEYWgJPAgWOnL8y7tbALxgzUAMhE66xdAMu4d02Rzz1DPJsJvmpmL0TISdy+YonEFwkXdJumc2+E5ya1C9nMuxfg4uYuf6IE9u8qxb9DiYlhLOS8Uc5RGxq3tjHMhMbqGW8+Qmz7pTyrsx1HKJsRvVTsHYu7p7oK+3V3LN0YiUKxBP1mR5WU+22lNPySaLz/+d/sd314R6W7Wu5F9UbpXLyUDsAS863uX8ioyWk3fEzjJQnLxPLN6jMwgjMGtWS0zZIO9uemZj4EGoVGD37t3ABkpCPSOby9TzatyD4F1zVM3Rqu8jA4HzOxjixos+iuDcQvh9VEC3jmfsAUuzhqlNiQGxxwx5gV3kXTwHgTKDMqMwqTR6hqRHJp+RkRFoaREMhJrpSOY96kxH9m/cCMs6O6FS8bcYrvcPKdbF3FQu3nu6uqG3L4EHQZCZHOMgGLwGOsvB0lzIrxhiz49bXc0Goag3mVEv42tDr7JV5D1Jh6QPtVy/vCvSNkU0Jhir/Rv7YVnnMhqyWPQgJOkf1TN5YM8Sn15DStNlxXjvTmogCI1zHoQwq5cqoRLrkWadFeR78qHbA2R1Fk8PlkBe/Lr8vQZ/2UvpEZNhsP9G7NnIKufT84dUwbwnfhHEHp489KgQPG+GsYq828l74EEY/vhj+NsZM8I4CEHIZXo0vNELrRuoRvoH8bie93WkHzyhARpprkTdJwjWyyYDoqr2PKMjG6tA0u9RHdlI2o2UdqCWyXdVmmiKFPKeDWI4uGCn9dFAvNlg3zz4n9DTfS80V5rhv17YDvP+6VoPHKN3yoodMuS9odG/VcDOq4zM2PC+Zs0a2LRpk/kMgmFezdGD4Iu60jJIbDLwhkNibWbxIGKPk5Sy2yxY10Q4Ttl4yscRuxUDE0ZmAg9CQlbwMWQgdwbiuRjcmmyoVpk4CJJn0+pUw4Kea1HdluoXPTrEbqerkfeIpyJlRj1Uyy/viB3CJD1uKhdLIwPFMaA3EMx6hvcgcOU5vz17F8zu7aR1cb5ff6XoppKFGhSaHbGHbhbPH8Xu0yDvgdSgvEu8ceIIi1zUbIh0GyVQ1FiNdjSLxf6/J0aBHlNks6PSFREbb6QKZAeg0Y9CEpYNzsn6ew/Um0y2BshGg5/wj3zVGNRN/kH3DUgxf9uiIdiUIFsKfqSbaNfA2z0Iy5DHvU0KsrtB664Jdv896St4/RVgP/WXv8DY2b9SbFOmTIHJkyeFmy5lx87s1mTCu8+Mvw0URS8M+pR2naXMTJ36N9DU1KQdsqqxatxikD/oNqnbKBN9mWTtFYU9Dz/G+MOeXgrEGorjHbGzDCDvvDwoDaGMxWY88C5/hyz1e8akMxeeJiJ2Y7pnGSniwssyUnOmIW4oBoNcIXbJAjHl+EHeI2eaSa2ZfnfpCuQdeXeRl2CFOR51JEkfRM5/1KN+rzfs8WyOVAoVNrGkR7yvhB9UBw9iEq5ToQwGya0IuQ2P2MFPIJPcI4O8h9yhvDNiNAHHakyPsRyUSUdKotshdnlqpkznpvHPu3GLwdVqdbIBUleecwVZLgFzhoq8F02woj2Umdp0BPKOvLsykLfM5Fl/nnUz6+yG81Vyazb4sFaxPJ6BcnVFD88EQRxM6KPf4za56dkIKx8yosTYY68khupA7Jq7jX6HJ5CZsvEuxJGQet/EocgMuJrKO2IX5JD0nqOOpAtORx1ZFt4RuzpQsaue8ffkpTOd1GtZO5mJrjnazss2Cydxx0FyByJxc9yD/j8SV+aPcU2+HlnViZtD7Jz0yOhQzo+WOUKk4lmHvIeQEXuhMoO8yxV83mMVeS8n74otBocp0KGoZDrWO4V8Iz04BGnnQXIA5FAUsZvYdyDToSjyjrx7K3XXm9YOD6CeUQuZA404VsffWFV6ECK5YCRE4koJjigSasKtCoNQKaqRsGtyyMk9CIjdwhrVKl3kXTcpxeaTvOVdXF4J7dnJe6S+Cx2riD0UJeRd1EsKPVMnMhPMeHLvSpq5Kf+xaotdOIOgs4BcTEmlBjN7gE1GGPO7zu3FV4PYZbS6sMI+X2beTe+E2A0DzNXY8aurDe/CuyD2WOfay7uD4o3P88zqMF6PqluykxnE7qLfXXh3vMWgr5r9VbqqsepHE3yVhWCqHLHrGULe7VVbZOHHMp07+8LLxLtpDDnODEqr0tROkrFqqhOxmxkqCe8BDIehYdqDks9NZkacF5rjDLsk1LJdr9AkYTSUp34JEdYW/0PaO7TaIGqo/19a0ASL/m4q5Ct2xC5dadQz76EY1qHMIHa1onbWM2FVDpNdWWQGsWsEwU2/c+FgFKIQ/7ocMlMG7AETjh4EV4tLbbXbTeXB80xptwfTApa6K9wgIPZ0nZDUF4W8I+/mdYVyheg2yNNRzT2N8u52KD0r6pF3Ge+cgaD3jphHTFo3jrkF6XzNORjkdZhrRuyWA02gEmXG90q5HrK3cIop5g2Ud4Zr88iOy7XTMyjvUr+GE4d6J7Nc8TjxbtZd5dXv5cau8SD4fnjOrBDFQicmOossOL3ql1FWI/vBRjQRu3xXpgy86wZE2WUGsau3+vIcq8g78s7KgI1+R5nJQmYkBoLNBGy2egybSWkq0DyL2JF3V9FKITNWj1oVcgWdZE2m9KbXncxYUWpVCHl3YcCKUqtCLq2q3cYutVjBsiqkbFWf5iFd3eZXTVe/CntoIIjBf9WOU9mqXw1OlTMkeIL+N3w8SGYeBX/m/KkKloJzrNgAAAAySURBVBC7xI3KHrxi3AnIeyDZfOBilHcA/Vj1R1ldjlXEXhsdmSfvsskgy7kJsRMG/h9Y8gWaEY6kVQAAAABJRU5ErkJggg==;" vertex="1" parent="1">
          <mxGeometry x="240" y="170" width="406.96" height="270" as="geometry" />
        </mxCell>
        <mxCell id="QaYmW2VWhPKLXj62cDTN-2" value="&lt;font style=&quot;font-size: 13px;&quot;&gt;heap：存放具体值，无所谓长度是否固定&lt;br&gt;由index和value组成&lt;/font&gt;" style="text;html=1;strokeColor=none;fillColor=none;align=center;verticalAlign=middle;whiteSpace=wrap;rounded=0;" vertex="1" parent="1">
          <mxGeometry x="425" y="430" width="295" height="60" as="geometry" />
        </mxCell>
        <mxCell id="QaYmW2VWhPKLXj62cDTN-5" value="&lt;font style=&quot;font-size: 13px;&quot;&gt;stack：存放指针的固定数据&lt;br&gt;ptr指向value、len长度、capacity容量&lt;/font&gt;" style="text;html=1;strokeColor=none;fillColor=none;align=center;verticalAlign=middle;whiteSpace=wrap;rounded=0;" vertex="1" parent="1">
          <mxGeometry x="230" y="350" width="220" height="70" as="geometry" />
        </mxCell>
        <mxCell id="QaYmW2VWhPKLXj62cDTN-6" value="&lt;font style=&quot;font-size: 20px;&quot;&gt;stack（pointer）指向heap（value content）&lt;/font&gt;" style="text;html=1;strokeColor=none;fillColor=none;align=center;verticalAlign=middle;whiteSpace=wrap;rounded=0;fontSize=13;" vertex="1" parent="1">
          <mxGeometry x="193.48000000000002" y="70" width="500" height="60" as="geometry" />
        </mxCell>
      </root>
    </mxGraphModel>
  </diagram>
</mxfile>
